<mxfile host="Electron" agent="Mozilla/5.0 (Windows NT 10.0; Win64; x64) AppleWebKit/537.36 (KHTML, like Gecko) draw.io/26.0.9 Chrome/128.0.6613.186 Electron/32.2.5 Safari/537.36" version="26.0.9">
  <diagram name="Seite-1" id="tVJjTK0MrMZWwoz48v92">
    <mxGraphModel dx="2977" dy="3133" grid="1" gridSize="10" guides="1" tooltips="1" connect="1" arrows="1" fold="1" page="1" pageScale="1" pageWidth="827" pageHeight="1169" math="0" shadow="0">
      <root>
        <mxCell id="0" />
        <mxCell id="1" parent="0" />
        <mxCell id="pfrqYCGvv3sASO-Da6oc-1" value="" style="rounded=1;whiteSpace=wrap;html=1;" parent="1" vertex="1">
          <mxGeometry x="990" y="2000" width="360" height="440" as="geometry" />
        </mxCell>
        <mxCell id="pfrqYCGvv3sASO-Da6oc-2" value="" style="ellipse;shape=cloud;whiteSpace=wrap;html=1;" parent="1" vertex="1">
          <mxGeometry x="975" y="2087.5" width="370" height="325" as="geometry" />
        </mxCell>
        <mxCell id="pfrqYCGvv3sASO-Da6oc-3" value="Time left&amp;nbsp;" style="text;html=1;align=center;verticalAlign=middle;whiteSpace=wrap;rounded=0;" parent="1" vertex="1">
          <mxGeometry x="1140" y="2020" width="60" height="30" as="geometry" />
        </mxCell>
        <mxCell id="pfrqYCGvv3sASO-Da6oc-4" value="" style="line;strokeWidth=2;direction=south;html=1;" parent="1" vertex="1">
          <mxGeometry x="1105" y="2130" width="10" height="240" as="geometry" />
        </mxCell>
        <mxCell id="pfrqYCGvv3sASO-Da6oc-5" value="" style="line;strokeWidth=2;direction=south;html=1;" parent="1" vertex="1">
          <mxGeometry x="1225" y="2130" width="10" height="240" as="geometry" />
        </mxCell>
        <mxCell id="pfrqYCGvv3sASO-Da6oc-6" value="" style="line;strokeWidth=2;html=1;" parent="1" vertex="1">
          <mxGeometry x="1040" y="2190" width="260" height="10" as="geometry" />
        </mxCell>
        <mxCell id="pfrqYCGvv3sASO-Da6oc-7" value="" style="line;strokeWidth=2;html=1;" parent="1" vertex="1">
          <mxGeometry x="1040" y="2290" width="260" height="10" as="geometry" />
        </mxCell>
        <mxCell id="pfrqYCGvv3sASO-Da6oc-8" value="" style="line;strokeWidth=2;html=1;" parent="1" vertex="1">
          <mxGeometry x="1050" y="2050" width="260" height="10" as="geometry" />
        </mxCell>
        <mxCell id="pfrqYCGvv3sASO-Da6oc-9" value="" style="line;strokeWidth=2;html=1;" parent="1" vertex="1">
          <mxGeometry x="1050" y="2060" width="260" height="10" as="geometry" />
        </mxCell>
        <mxCell id="pfrqYCGvv3sASO-Da6oc-10" value="" style="line;strokeWidth=2;html=1;" parent="1" vertex="1">
          <mxGeometry x="1050" y="2070" width="260" height="10" as="geometry" />
        </mxCell>
        <mxCell id="pfrqYCGvv3sASO-Da6oc-11" value="" style="endArrow=none;html=1;rounded=0;" parent="1" edge="1">
          <mxGeometry width="50" height="50" relative="1" as="geometry">
            <mxPoint x="1125" y="2290" as="sourcePoint" />
            <mxPoint x="1210" y="2210" as="targetPoint" />
          </mxGeometry>
        </mxCell>
        <mxCell id="pfrqYCGvv3sASO-Da6oc-12" value="" style="endArrow=none;html=1;rounded=0;" parent="1" edge="1">
          <mxGeometry width="50" height="50" relative="1" as="geometry">
            <mxPoint x="1130" y="2210" as="sourcePoint" />
            <mxPoint x="1210" y="2290" as="targetPoint" />
          </mxGeometry>
        </mxCell>
        <mxCell id="pfrqYCGvv3sASO-Da6oc-13" value="" style="endArrow=none;html=1;rounded=0;" parent="1" edge="1">
          <mxGeometry width="50" height="50" relative="1" as="geometry">
            <mxPoint x="1040" y="2414" as="sourcePoint" />
            <mxPoint x="1062.5" y="2394" as="targetPoint" />
          </mxGeometry>
        </mxCell>
        <mxCell id="pfrqYCGvv3sASO-Da6oc-14" value="" style="endArrow=none;html=1;rounded=0;" parent="1" edge="1">
          <mxGeometry width="50" height="50" relative="1" as="geometry">
            <mxPoint x="1042.5" y="2394" as="sourcePoint" />
            <mxPoint x="1062.5" y="2414" as="targetPoint" />
          </mxGeometry>
        </mxCell>
        <mxCell id="pfrqYCGvv3sASO-Da6oc-15" value="" style="endArrow=none;html=1;rounded=0;" parent="1" edge="1">
          <mxGeometry width="50" height="50" relative="1" as="geometry">
            <mxPoint x="1077.5" y="2414" as="sourcePoint" />
            <mxPoint x="1100" y="2394" as="targetPoint" />
          </mxGeometry>
        </mxCell>
        <mxCell id="pfrqYCGvv3sASO-Da6oc-16" value="" style="endArrow=none;html=1;rounded=0;" parent="1" edge="1">
          <mxGeometry width="50" height="50" relative="1" as="geometry">
            <mxPoint x="1080" y="2394" as="sourcePoint" />
            <mxPoint x="1100" y="2414" as="targetPoint" />
          </mxGeometry>
        </mxCell>
        <mxCell id="pfrqYCGvv3sASO-Da6oc-17" value="" style="endArrow=none;html=1;rounded=0;" parent="1" edge="1">
          <mxGeometry width="50" height="50" relative="1" as="geometry">
            <mxPoint x="1115" y="2414" as="sourcePoint" />
            <mxPoint x="1137.5" y="2394" as="targetPoint" />
          </mxGeometry>
        </mxCell>
        <mxCell id="pfrqYCGvv3sASO-Da6oc-18" value="" style="endArrow=none;html=1;rounded=0;" parent="1" edge="1">
          <mxGeometry width="50" height="50" relative="1" as="geometry">
            <mxPoint x="1117.5" y="2394" as="sourcePoint" />
            <mxPoint x="1137.5" y="2414" as="targetPoint" />
          </mxGeometry>
        </mxCell>
        <mxCell id="pfrqYCGvv3sASO-Da6oc-19" value="" style="endArrow=none;html=1;rounded=0;" parent="1" edge="1">
          <mxGeometry width="50" height="50" relative="1" as="geometry">
            <mxPoint x="1150" y="2414" as="sourcePoint" />
            <mxPoint x="1172.5" y="2394" as="targetPoint" />
          </mxGeometry>
        </mxCell>
        <mxCell id="pfrqYCGvv3sASO-Da6oc-20" value="" style="endArrow=none;html=1;rounded=0;" parent="1" edge="1">
          <mxGeometry width="50" height="50" relative="1" as="geometry">
            <mxPoint x="1152.5" y="2394" as="sourcePoint" />
            <mxPoint x="1172.5" y="2414" as="targetPoint" />
          </mxGeometry>
        </mxCell>
        <mxCell id="pfrqYCGvv3sASO-Da6oc-21" value="" style="endArrow=none;html=1;rounded=0;" parent="1" edge="1">
          <mxGeometry width="50" height="50" relative="1" as="geometry">
            <mxPoint x="1180" y="2414" as="sourcePoint" />
            <mxPoint x="1202.5" y="2394" as="targetPoint" />
          </mxGeometry>
        </mxCell>
        <mxCell id="pfrqYCGvv3sASO-Da6oc-22" value="" style="endArrow=none;html=1;rounded=0;" parent="1" edge="1">
          <mxGeometry width="50" height="50" relative="1" as="geometry">
            <mxPoint x="1182.5" y="2394" as="sourcePoint" />
            <mxPoint x="1202.5" y="2414" as="targetPoint" />
          </mxGeometry>
        </mxCell>
        <mxCell id="pfrqYCGvv3sASO-Da6oc-23" value="" style="endArrow=none;html=1;rounded=0;" parent="1" edge="1">
          <mxGeometry width="50" height="50" relative="1" as="geometry">
            <mxPoint x="1212.5" y="2414" as="sourcePoint" />
            <mxPoint x="1235" y="2394" as="targetPoint" />
          </mxGeometry>
        </mxCell>
        <mxCell id="pfrqYCGvv3sASO-Da6oc-24" value="" style="endArrow=none;html=1;rounded=0;" parent="1" edge="1">
          <mxGeometry width="50" height="50" relative="1" as="geometry">
            <mxPoint x="1215" y="2394" as="sourcePoint" />
            <mxPoint x="1235" y="2414" as="targetPoint" />
          </mxGeometry>
        </mxCell>
        <mxCell id="pfrqYCGvv3sASO-Da6oc-25" value="" style="endArrow=none;html=1;rounded=0;" parent="1" edge="1">
          <mxGeometry width="50" height="50" relative="1" as="geometry">
            <mxPoint x="1240" y="2414" as="sourcePoint" />
            <mxPoint x="1262.5" y="2394" as="targetPoint" />
          </mxGeometry>
        </mxCell>
        <mxCell id="pfrqYCGvv3sASO-Da6oc-26" value="" style="endArrow=none;html=1;rounded=0;" parent="1" edge="1">
          <mxGeometry width="50" height="50" relative="1" as="geometry">
            <mxPoint x="1242.5" y="2394" as="sourcePoint" />
            <mxPoint x="1262.5" y="2414" as="targetPoint" />
          </mxGeometry>
        </mxCell>
        <mxCell id="pfrqYCGvv3sASO-Da6oc-27" value="" style="endArrow=none;html=1;rounded=0;" parent="1" edge="1">
          <mxGeometry width="50" height="50" relative="1" as="geometry">
            <mxPoint x="1270" y="2414" as="sourcePoint" />
            <mxPoint x="1292.5" y="2394" as="targetPoint" />
          </mxGeometry>
        </mxCell>
        <mxCell id="pfrqYCGvv3sASO-Da6oc-28" value="" style="endArrow=none;html=1;rounded=0;" parent="1" edge="1">
          <mxGeometry width="50" height="50" relative="1" as="geometry">
            <mxPoint x="1272.5" y="2394" as="sourcePoint" />
            <mxPoint x="1292.5" y="2414" as="targetPoint" />
          </mxGeometry>
        </mxCell>
        <mxCell id="pfrqYCGvv3sASO-Da6oc-29" value="" style="rounded=0;whiteSpace=wrap;html=1;fillColor=#f8cecc;strokeColor=#b85450;" parent="1" vertex="1">
          <mxGeometry x="-1300" y="-1160" width="1440" height="1200" as="geometry" />
        </mxCell>
        <mxCell id="pfrqYCGvv3sASO-Da6oc-30" value="" style="rounded=1;whiteSpace=wrap;html=1;" parent="1" vertex="1">
          <mxGeometry x="970" y="-520" width="360" height="440" as="geometry" />
        </mxCell>
        <mxCell id="pfrqYCGvv3sASO-Da6oc-31" value="" style="rounded=1;whiteSpace=wrap;html=1;" parent="1" vertex="1">
          <mxGeometry x="970" y="80" width="360" height="440" as="geometry" />
        </mxCell>
        <mxCell id="pfrqYCGvv3sASO-Da6oc-32" value="" style="rounded=1;whiteSpace=wrap;html=1;" parent="1" vertex="1">
          <mxGeometry x="1010" y="-320" width="280" height="170" as="geometry" />
        </mxCell>
        <mxCell id="pfrqYCGvv3sASO-Da6oc-33" value="" style="rounded=0;whiteSpace=wrap;html=1;" parent="1" vertex="1">
          <mxGeometry x="1130" y="200" width="40" height="40" as="geometry" />
        </mxCell>
        <mxCell id="pfrqYCGvv3sASO-Da6oc-34" value="" style="rounded=0;whiteSpace=wrap;html=1;" parent="1" vertex="1">
          <mxGeometry x="1070" y="200" width="40" height="40" as="geometry" />
        </mxCell>
        <mxCell id="pfrqYCGvv3sASO-Da6oc-35" value="" style="rounded=0;whiteSpace=wrap;html=1;" parent="1" vertex="1">
          <mxGeometry x="1190" y="200" width="40" height="40" as="geometry" />
        </mxCell>
        <mxCell id="pfrqYCGvv3sASO-Da6oc-36" value="" style="rounded=0;whiteSpace=wrap;html=1;" parent="1" vertex="1">
          <mxGeometry x="1010" y="200" width="40" height="40" as="geometry" />
        </mxCell>
        <mxCell id="pfrqYCGvv3sASO-Da6oc-37" value="" style="rounded=0;whiteSpace=wrap;html=1;" parent="1" vertex="1">
          <mxGeometry x="1250" y="200" width="40" height="40" as="geometry" />
        </mxCell>
        <mxCell id="pfrqYCGvv3sASO-Da6oc-38" value="" style="rounded=0;whiteSpace=wrap;html=1;" parent="1" vertex="1">
          <mxGeometry x="1130" y="260" width="40" height="40" as="geometry" />
        </mxCell>
        <mxCell id="pfrqYCGvv3sASO-Da6oc-39" value="" style="rounded=0;whiteSpace=wrap;html=1;" parent="1" vertex="1">
          <mxGeometry x="1070" y="260" width="40" height="40" as="geometry" />
        </mxCell>
        <mxCell id="pfrqYCGvv3sASO-Da6oc-40" value="" style="rounded=0;whiteSpace=wrap;html=1;" parent="1" vertex="1">
          <mxGeometry x="1190" y="260" width="40" height="40" as="geometry" />
        </mxCell>
        <mxCell id="pfrqYCGvv3sASO-Da6oc-41" value="" style="rounded=0;whiteSpace=wrap;html=1;" parent="1" vertex="1">
          <mxGeometry x="1010" y="260" width="40" height="40" as="geometry" />
        </mxCell>
        <mxCell id="pfrqYCGvv3sASO-Da6oc-42" value="" style="rounded=0;whiteSpace=wrap;html=1;" parent="1" vertex="1">
          <mxGeometry x="1250" y="260" width="40" height="40" as="geometry" />
        </mxCell>
        <mxCell id="pfrqYCGvv3sASO-Da6oc-43" value="" style="rounded=0;whiteSpace=wrap;html=1;" parent="1" vertex="1">
          <mxGeometry x="1130" y="320" width="40" height="40" as="geometry" />
        </mxCell>
        <mxCell id="pfrqYCGvv3sASO-Da6oc-44" value="" style="rounded=0;whiteSpace=wrap;html=1;" parent="1" vertex="1">
          <mxGeometry x="1070" y="320" width="40" height="40" as="geometry" />
        </mxCell>
        <mxCell id="pfrqYCGvv3sASO-Da6oc-45" value="" style="rounded=0;whiteSpace=wrap;html=1;" parent="1" vertex="1">
          <mxGeometry x="1190" y="320" width="40" height="40" as="geometry" />
        </mxCell>
        <mxCell id="pfrqYCGvv3sASO-Da6oc-46" value="" style="rounded=0;whiteSpace=wrap;html=1;" parent="1" vertex="1">
          <mxGeometry x="1010" y="320" width="40" height="40" as="geometry" />
        </mxCell>
        <mxCell id="pfrqYCGvv3sASO-Da6oc-47" value="" style="rounded=0;whiteSpace=wrap;html=1;" parent="1" vertex="1">
          <mxGeometry x="1250" y="320" width="40" height="40" as="geometry" />
        </mxCell>
        <mxCell id="pfrqYCGvv3sASO-Da6oc-48" value="" style="rounded=0;whiteSpace=wrap;html=1;" parent="1" vertex="1">
          <mxGeometry x="1130" y="380" width="40" height="40" as="geometry" />
        </mxCell>
        <mxCell id="pfrqYCGvv3sASO-Da6oc-49" value="" style="rounded=0;whiteSpace=wrap;html=1;" parent="1" vertex="1">
          <mxGeometry x="1070" y="380" width="40" height="40" as="geometry" />
        </mxCell>
        <mxCell id="pfrqYCGvv3sASO-Da6oc-50" value="" style="rounded=0;whiteSpace=wrap;html=1;" parent="1" vertex="1">
          <mxGeometry x="1190" y="380" width="40" height="40" as="geometry" />
        </mxCell>
        <mxCell id="pfrqYCGvv3sASO-Da6oc-51" value="" style="rounded=0;whiteSpace=wrap;html=1;" parent="1" vertex="1">
          <mxGeometry x="1010" y="380" width="40" height="40" as="geometry" />
        </mxCell>
        <mxCell id="pfrqYCGvv3sASO-Da6oc-52" value="" style="rounded=0;whiteSpace=wrap;html=1;" parent="1" vertex="1">
          <mxGeometry x="1250" y="380" width="40" height="40" as="geometry" />
        </mxCell>
        <mxCell id="pfrqYCGvv3sASO-Da6oc-53" value="" style="rounded=0;whiteSpace=wrap;html=1;" parent="1" vertex="1">
          <mxGeometry x="1130" y="440" width="40" height="40" as="geometry" />
        </mxCell>
        <mxCell id="pfrqYCGvv3sASO-Da6oc-54" value="" style="rounded=0;whiteSpace=wrap;html=1;" parent="1" vertex="1">
          <mxGeometry x="1070" y="440" width="40" height="40" as="geometry" />
        </mxCell>
        <mxCell id="pfrqYCGvv3sASO-Da6oc-55" value="" style="rounded=0;whiteSpace=wrap;html=1;" parent="1" vertex="1">
          <mxGeometry x="1190" y="440" width="40" height="40" as="geometry" />
        </mxCell>
        <mxCell id="pfrqYCGvv3sASO-Da6oc-56" value="" style="rounded=0;whiteSpace=wrap;html=1;" parent="1" vertex="1">
          <mxGeometry x="1010" y="440" width="40" height="40" as="geometry" />
        </mxCell>
        <mxCell id="pfrqYCGvv3sASO-Da6oc-57" value="" style="rounded=0;whiteSpace=wrap;html=1;" parent="1" vertex="1">
          <mxGeometry x="1250" y="440" width="40" height="40" as="geometry" />
        </mxCell>
        <mxCell id="pfrqYCGvv3sASO-Da6oc-58" value="" style="rounded=0;whiteSpace=wrap;html=1;" parent="1" vertex="1">
          <mxGeometry x="1010" y="140" width="280" height="40" as="geometry" />
        </mxCell>
        <mxCell id="pfrqYCGvv3sASO-Da6oc-59" value="Time left&amp;nbsp;" style="text;html=1;align=center;verticalAlign=middle;whiteSpace=wrap;rounded=0;" parent="1" vertex="1">
          <mxGeometry x="1120" y="145" width="60" height="30" as="geometry" />
        </mxCell>
        <mxCell id="pfrqYCGvv3sASO-Da6oc-60" value="" style="rounded=0;whiteSpace=wrap;html=1;" parent="1" vertex="1">
          <mxGeometry x="1100" y="-280" width="40" height="40" as="geometry" />
        </mxCell>
        <mxCell id="pfrqYCGvv3sASO-Da6oc-61" value="" style="rounded=0;whiteSpace=wrap;html=1;" parent="1" vertex="1">
          <mxGeometry x="1040" y="-280" width="40" height="40" as="geometry" />
        </mxCell>
        <mxCell id="pfrqYCGvv3sASO-Da6oc-62" value="" style="rounded=0;whiteSpace=wrap;html=1;" parent="1" vertex="1">
          <mxGeometry x="1160" y="-280" width="40" height="40" as="geometry" />
        </mxCell>
        <mxCell id="pfrqYCGvv3sASO-Da6oc-63" value="" style="rounded=0;whiteSpace=wrap;html=1;" parent="1" vertex="1">
          <mxGeometry x="1100" y="-220" width="40" height="40" as="geometry" />
        </mxCell>
        <mxCell id="pfrqYCGvv3sASO-Da6oc-64" value="" style="rounded=0;whiteSpace=wrap;html=1;" parent="1" vertex="1">
          <mxGeometry x="1040" y="-220" width="40" height="40" as="geometry" />
        </mxCell>
        <mxCell id="pfrqYCGvv3sASO-Da6oc-65" value="" style="rounded=0;whiteSpace=wrap;html=1;" parent="1" vertex="1">
          <mxGeometry x="1160" y="-220" width="40" height="40" as="geometry" />
        </mxCell>
        <mxCell id="pfrqYCGvv3sASO-Da6oc-66" value="" style="rounded=0;whiteSpace=wrap;html=1;" parent="1" vertex="1">
          <mxGeometry x="1220" y="-220" width="40" height="40" as="geometry" />
        </mxCell>
        <mxCell id="pfrqYCGvv3sASO-Da6oc-67" value="" style="rounded=0;whiteSpace=wrap;html=1;" parent="1" vertex="1">
          <mxGeometry x="1220" y="-280" width="40" height="40" as="geometry" />
        </mxCell>
        <mxCell id="pfrqYCGvv3sASO-Da6oc-68" value="" style="rounded=0;whiteSpace=wrap;html=1;" parent="1" vertex="1">
          <mxGeometry x="1010" y="-440" width="280" height="40" as="geometry" />
        </mxCell>
        <mxCell id="pfrqYCGvv3sASO-Da6oc-69" value="Time left&amp;nbsp;" style="text;html=1;align=center;verticalAlign=middle;whiteSpace=wrap;rounded=0;" parent="1" vertex="1">
          <mxGeometry x="1120" y="-435" width="60" height="30" as="geometry" />
        </mxCell>
        <mxCell id="pfrqYCGvv3sASO-Da6oc-70" value="" style="shape=flexArrow;endArrow=classic;html=1;rounded=0;" parent="1" edge="1">
          <mxGeometry width="50" height="50" relative="1" as="geometry">
            <mxPoint x="1150" y="-50" as="sourcePoint" />
            <mxPoint x="1150" y="40" as="targetPoint" />
          </mxGeometry>
        </mxCell>
        <mxCell id="pfrqYCGvv3sASO-Da6oc-71" value="" style="shape=flexArrow;endArrow=classic;html=1;rounded=0;" parent="1" edge="1">
          <mxGeometry width="50" height="50" relative="1" as="geometry">
            <mxPoint x="1270" y="-40" as="sourcePoint" />
            <mxPoint x="1560" y="40" as="targetPoint" />
          </mxGeometry>
        </mxCell>
        <mxCell id="pfrqYCGvv3sASO-Da6oc-72" value="" style="rounded=1;whiteSpace=wrap;html=1;" parent="1" vertex="1">
          <mxGeometry x="1410" y="80" width="520" height="440" as="geometry" />
        </mxCell>
        <mxCell id="pfrqYCGvv3sASO-Da6oc-73" value="Actor" style="shape=umlActor;verticalLabelPosition=bottom;verticalAlign=top;html=1;outlineConnect=0;" parent="1" vertex="1">
          <mxGeometry x="1470" y="110" width="30" height="60" as="geometry" />
        </mxCell>
        <mxCell id="pfrqYCGvv3sASO-Da6oc-74" value="Actor" style="shape=umlActor;verticalLabelPosition=bottom;verticalAlign=top;html=1;outlineConnect=0;" parent="1" vertex="1">
          <mxGeometry x="1440" y="275" width="30" height="60" as="geometry" />
        </mxCell>
        <mxCell id="pfrqYCGvv3sASO-Da6oc-75" value="Actor" style="shape=umlActor;verticalLabelPosition=bottom;verticalAlign=top;html=1;outlineConnect=0;" parent="1" vertex="1">
          <mxGeometry x="1810" y="115" width="30" height="60" as="geometry" />
        </mxCell>
        <mxCell id="pfrqYCGvv3sASO-Da6oc-76" value="Actor" style="shape=umlActor;verticalLabelPosition=bottom;verticalAlign=top;html=1;outlineConnect=0;" parent="1" vertex="1">
          <mxGeometry x="1810" y="400" width="30" height="60" as="geometry" />
        </mxCell>
        <mxCell id="pfrqYCGvv3sASO-Da6oc-77" value="Actor" style="shape=umlActor;verticalLabelPosition=bottom;verticalAlign=top;html=1;outlineConnect=0;" parent="1" vertex="1">
          <mxGeometry x="1510" y="400" width="30" height="60" as="geometry" />
        </mxCell>
        <mxCell id="pfrqYCGvv3sASO-Da6oc-78" value="" style="rounded=1;whiteSpace=wrap;html=1;" parent="1" vertex="1">
          <mxGeometry x="1540" y="220" width="280" height="170" as="geometry" />
        </mxCell>
        <mxCell id="pfrqYCGvv3sASO-Da6oc-79" value="" style="rounded=0;whiteSpace=wrap;html=1;" parent="1" vertex="1">
          <mxGeometry x="1630" y="260" width="40" height="40" as="geometry" />
        </mxCell>
        <mxCell id="pfrqYCGvv3sASO-Da6oc-80" value="" style="rounded=0;whiteSpace=wrap;html=1;" parent="1" vertex="1">
          <mxGeometry x="1570" y="260" width="40" height="40" as="geometry" />
        </mxCell>
        <mxCell id="pfrqYCGvv3sASO-Da6oc-81" value="" style="rounded=0;whiteSpace=wrap;html=1;" parent="1" vertex="1">
          <mxGeometry x="1690" y="260" width="40" height="40" as="geometry" />
        </mxCell>
        <mxCell id="pfrqYCGvv3sASO-Da6oc-82" value="" style="rounded=0;whiteSpace=wrap;html=1;" parent="1" vertex="1">
          <mxGeometry x="1630" y="320" width="40" height="40" as="geometry" />
        </mxCell>
        <mxCell id="pfrqYCGvv3sASO-Da6oc-83" value="" style="rounded=0;whiteSpace=wrap;html=1;" parent="1" vertex="1">
          <mxGeometry x="1570" y="320" width="40" height="40" as="geometry" />
        </mxCell>
        <mxCell id="pfrqYCGvv3sASO-Da6oc-84" value="" style="rounded=0;whiteSpace=wrap;html=1;" parent="1" vertex="1">
          <mxGeometry x="1690" y="320" width="40" height="40" as="geometry" />
        </mxCell>
        <mxCell id="pfrqYCGvv3sASO-Da6oc-85" value="" style="rounded=0;whiteSpace=wrap;html=1;" parent="1" vertex="1">
          <mxGeometry x="1750" y="320" width="40" height="40" as="geometry" />
        </mxCell>
        <mxCell id="pfrqYCGvv3sASO-Da6oc-86" value="" style="rounded=0;whiteSpace=wrap;html=1;" parent="1" vertex="1">
          <mxGeometry x="1750" y="260" width="40" height="40" as="geometry" />
        </mxCell>
        <mxCell id="pfrqYCGvv3sASO-Da6oc-87" value="" style="rounded=1;whiteSpace=wrap;html=1;" parent="1" vertex="1">
          <mxGeometry x="970" y="-1180" width="360" height="440" as="geometry" />
        </mxCell>
        <mxCell id="pfrqYCGvv3sASO-Da6oc-88" value="" style="rounded=1;whiteSpace=wrap;html=1;" parent="1" vertex="1">
          <mxGeometry x="1010" y="-1120" width="280" height="320" as="geometry" />
        </mxCell>
        <mxCell id="pfrqYCGvv3sASO-Da6oc-89" value="&lt;h1 style=&quot;margin-top: 0px;&quot;&gt;&lt;br&gt;&lt;/h1&gt;" style="text;html=1;whiteSpace=wrap;overflow=hidden;rounded=0;" parent="1" vertex="1">
          <mxGeometry x="1070" y="-1065" width="180" height="120" as="geometry" />
        </mxCell>
        <mxCell id="pfrqYCGvv3sASO-Da6oc-90" value="Select Gamemode" style="text;html=1;align=center;verticalAlign=middle;whiteSpace=wrap;rounded=0;" parent="1" vertex="1">
          <mxGeometry x="1060" y="-1095" width="180" height="30" as="geometry" />
        </mxCell>
        <mxCell id="pfrqYCGvv3sASO-Da6oc-91" value="" style="endArrow=none;dashed=1;html=1;rounded=0;exitX=0.5;exitY=0.5;exitDx=0;exitDy=0;exitPerimeter=0;" parent="1" edge="1">
          <mxGeometry width="50" height="50" relative="1" as="geometry">
            <mxPoint x="1825" y="145" as="sourcePoint" />
            <mxPoint x="2050" y="90" as="targetPoint" />
          </mxGeometry>
        </mxCell>
        <mxCell id="pfrqYCGvv3sASO-Da6oc-92" value="&lt;h1 style=&quot;margin-top: 0px;&quot;&gt;&lt;span style=&quot;background-color: transparent; color: light-dark(rgb(0, 0, 0), rgb(255, 255, 255));&quot;&gt;Moving Enemies&lt;/span&gt;&lt;/h1&gt;&lt;h1 style=&quot;margin-top: 0px;&quot;&gt;&lt;span style=&quot;font-size: 12px; font-weight: 400;&quot;&gt;One Idea might be to create a somewhat defense game. There are 8 squares and you need to repair them by pressing. if you press them one of the nearing enemies disappear.&amp;nbsp;&lt;/span&gt;&lt;/h1&gt;" style="text;html=1;whiteSpace=wrap;overflow=hidden;rounded=0;" parent="1" vertex="1">
          <mxGeometry x="2080" y="-10" width="430" height="190" as="geometry" />
        </mxCell>
        <mxCell id="pfrqYCGvv3sASO-Da6oc-93" value="" style="endArrow=none;dashed=1;html=1;rounded=0;" parent="1" edge="1">
          <mxGeometry width="50" height="50" relative="1" as="geometry">
            <mxPoint x="1330" y="-343.90243902439033" as="sourcePoint" />
            <mxPoint x="1560" y="-400" as="targetPoint" />
          </mxGeometry>
        </mxCell>
        <mxCell id="pfrqYCGvv3sASO-Da6oc-94" value="&lt;h1 style=&quot;margin-top: 0px;&quot;&gt;Basic Game Concept&lt;/h1&gt;&lt;p&gt;At the top there is a timer. When the timer is done, you die.&lt;/p&gt;&lt;p&gt;&lt;br&gt;&lt;/p&gt;&lt;p&gt;In the middle there are 8 squares. now you have to interact with the squares to live&lt;/p&gt;" style="text;html=1;whiteSpace=wrap;overflow=hidden;rounded=0;" parent="1" vertex="1">
          <mxGeometry x="1620" y="-500" width="260" height="230" as="geometry" />
        </mxCell>
        <mxCell id="pfrqYCGvv3sASO-Da6oc-95" value="Easy" style="text;html=1;align=center;verticalAlign=middle;whiteSpace=wrap;rounded=0;" parent="1" vertex="1">
          <mxGeometry x="1120" y="-1050" width="60" height="30" as="geometry" />
        </mxCell>
        <mxCell id="pfrqYCGvv3sASO-Da6oc-96" value="Normal" style="text;html=1;align=center;verticalAlign=middle;whiteSpace=wrap;rounded=0;" parent="1" vertex="1">
          <mxGeometry x="1120" y="-1020" width="60" height="30" as="geometry" />
        </mxCell>
        <mxCell id="pfrqYCGvv3sASO-Da6oc-97" value="Hard" style="text;html=1;align=center;verticalAlign=middle;whiteSpace=wrap;rounded=0;" parent="1" vertex="1">
          <mxGeometry x="1120" y="-990" width="60" height="30" as="geometry" />
        </mxCell>
        <mxCell id="pfrqYCGvv3sASO-Da6oc-98" value="It is a singleplayer game, therefore only one player. At first I only implement 3 Level&amp;nbsp;" style="text;html=1;align=center;verticalAlign=middle;whiteSpace=wrap;rounded=0;" parent="1" vertex="1">
          <mxGeometry x="-1250" y="-1020" width="210" height="130" as="geometry" />
        </mxCell>
        <mxCell id="pfrqYCGvv3sASO-Da6oc-99" value="Main" style="rounded=0;whiteSpace=wrap;html=1;verticalAlign=top;" parent="1" vertex="1">
          <mxGeometry x="-780" y="-1140" width="800" height="1120" as="geometry" />
        </mxCell>
        <mxCell id="pfrqYCGvv3sASO-Da6oc-100" value="Game()" style="rounded=0;whiteSpace=wrap;html=1;verticalAlign=top;" parent="1" vertex="1">
          <mxGeometry x="-770" y="-1110" width="780" height="1080" as="geometry" />
        </mxCell>
        <mxCell id="pfrqYCGvv3sASO-Da6oc-101" value="game_options()" style="rounded=0;whiteSpace=wrap;html=1;verticalAlign=top;" parent="1" vertex="1">
          <mxGeometry x="-760" y="-1070" width="760" height="60" as="geometry" />
        </mxCell>
        <mxCell id="pfrqYCGvv3sASO-Da6oc-102" value="game_init()" style="rounded=0;whiteSpace=wrap;html=1;verticalAlign=top;" parent="1" vertex="1">
          <mxGeometry x="-760" y="-970" width="760" height="60" as="geometry" />
        </mxCell>
        <mxCell id="pfrqYCGvv3sASO-Da6oc-103" value="game_play()" style="rounded=0;whiteSpace=wrap;html=1;verticalAlign=top;" parent="1" vertex="1">
          <mxGeometry x="-760" y="-870" width="760" height="830" as="geometry" />
        </mxCell>
        <mxCell id="pfrqYCGvv3sASO-Da6oc-104" value="level_init()" style="rounded=0;whiteSpace=wrap;html=1;verticalAlign=top;" parent="1" vertex="1">
          <mxGeometry x="-750" y="-830" width="740" height="60" as="geometry" />
        </mxCell>
        <mxCell id="pfrqYCGvv3sASO-Da6oc-105" value="level_play()" style="rounded=0;whiteSpace=wrap;html=1;verticalAlign=top;" parent="1" vertex="1">
          <mxGeometry x="-750" y="-760" width="740" height="60" as="geometry" />
        </mxCell>
        <mxCell id="pfrqYCGvv3sASO-Da6oc-106" value="" style="shape=flexArrow;endArrow=classic;html=1;rounded=0;" parent="1" edge="1">
          <mxGeometry width="50" height="50" relative="1" as="geometry">
            <mxPoint x="1140" y="570" as="sourcePoint" />
            <mxPoint x="1140" y="690" as="targetPoint" />
          </mxGeometry>
        </mxCell>
        <mxCell id="pfrqYCGvv3sASO-Da6oc-107" value="" style="rounded=1;whiteSpace=wrap;html=1;" parent="1" vertex="1">
          <mxGeometry x="970" y="730" width="360" height="440" as="geometry" />
        </mxCell>
        <mxCell id="pfrqYCGvv3sASO-Da6oc-108" value="Time left&amp;nbsp;" style="text;html=1;align=center;verticalAlign=middle;whiteSpace=wrap;rounded=0;" parent="1" vertex="1">
          <mxGeometry x="1120" y="750" width="60" height="30" as="geometry" />
        </mxCell>
        <mxCell id="pfrqYCGvv3sASO-Da6oc-109" value="" style="line;strokeWidth=2;direction=south;html=1;" parent="1" vertex="1">
          <mxGeometry x="1085" y="860" width="10" height="240" as="geometry" />
        </mxCell>
        <mxCell id="pfrqYCGvv3sASO-Da6oc-110" value="" style="line;strokeWidth=2;direction=south;html=1;" parent="1" vertex="1">
          <mxGeometry x="1205" y="860" width="10" height="240" as="geometry" />
        </mxCell>
        <mxCell id="pfrqYCGvv3sASO-Da6oc-111" value="" style="line;strokeWidth=2;html=1;" parent="1" vertex="1">
          <mxGeometry x="1020" y="920" width="260" height="10" as="geometry" />
        </mxCell>
        <mxCell id="pfrqYCGvv3sASO-Da6oc-112" value="" style="line;strokeWidth=2;html=1;" parent="1" vertex="1">
          <mxGeometry x="1020" y="1020" width="260" height="10" as="geometry" />
        </mxCell>
        <mxCell id="pfrqYCGvv3sASO-Da6oc-113" value="&lt;h1 style=&quot;margin-top: 0px;&quot;&gt;Time-field&lt;/h1&gt;&lt;p&gt;Timefield is being displayed as 3 lines.&amp;nbsp;&lt;/p&gt;" style="text;html=1;whiteSpace=wrap;overflow=hidden;rounded=0;" parent="1" vertex="1">
          <mxGeometry x="710" y="730" width="180" height="120" as="geometry" />
        </mxCell>
        <mxCell id="pfrqYCGvv3sASO-Da6oc-114" value="" style="line;strokeWidth=2;html=1;" parent="1" vertex="1">
          <mxGeometry x="1030" y="780" width="260" height="10" as="geometry" />
        </mxCell>
        <mxCell id="pfrqYCGvv3sASO-Da6oc-115" value="" style="line;strokeWidth=2;html=1;" parent="1" vertex="1">
          <mxGeometry x="1030" y="790" width="260" height="10" as="geometry" />
        </mxCell>
        <mxCell id="pfrqYCGvv3sASO-Da6oc-116" value="" style="line;strokeWidth=2;html=1;" parent="1" vertex="1">
          <mxGeometry x="1030" y="800" width="260" height="10" as="geometry" />
        </mxCell>
        <mxCell id="pfrqYCGvv3sASO-Da6oc-117" value="&lt;h1 style=&quot;margin-top: 0px;&quot;&gt;Time Field&lt;/h1&gt;&lt;p&gt;the time field is displayed indirectly thorugh the distance of the enemies to the squares&lt;/p&gt;" style="text;html=1;whiteSpace=wrap;overflow=hidden;rounded=0;" parent="1" vertex="1">
          <mxGeometry x="2080" y="200" width="180" height="120" as="geometry" />
        </mxCell>
        <mxCell id="pfrqYCGvv3sASO-Da6oc-118" value="&lt;h1 style=&quot;margin-top: 0px;&quot;&gt;interacting fields&lt;/h1&gt;&lt;p&gt;increased interacting field -&amp;gt; May be more fun&lt;/p&gt;" style="text;html=1;whiteSpace=wrap;overflow=hidden;rounded=0;" parent="1" vertex="1">
          <mxGeometry x="730" y="245" width="180" height="120" as="geometry" />
        </mxCell>
        <mxCell id="pfrqYCGvv3sASO-Da6oc-119" value="&lt;h1 style=&quot;margin-top: 0px;&quot;&gt;Gamefield&lt;/h1&gt;&lt;p&gt;Instead of creating a lot of squares, which may take more cycles, just create 4 lines. Way more performance&lt;/p&gt;" style="text;html=1;whiteSpace=wrap;overflow=hidden;rounded=0;" parent="1" vertex="1">
          <mxGeometry x="690" y="910" width="180" height="120" as="geometry" />
        </mxCell>
        <mxCell id="pfrqYCGvv3sASO-Da6oc-120" value="" style="shape=flexArrow;endArrow=classic;html=1;rounded=0;" parent="1" edge="1">
          <mxGeometry width="50" height="50" relative="1" as="geometry">
            <mxPoint x="1140" y="1220" as="sourcePoint" />
            <mxPoint x="1140" y="1340" as="targetPoint" />
          </mxGeometry>
        </mxCell>
        <mxCell id="pfrqYCGvv3sASO-Da6oc-121" value="" style="rounded=1;whiteSpace=wrap;html=1;" parent="1" vertex="1">
          <mxGeometry x="970" y="1360" width="360" height="440" as="geometry" />
        </mxCell>
        <mxCell id="pfrqYCGvv3sASO-Da6oc-122" value="Time left&amp;nbsp;" style="text;html=1;align=center;verticalAlign=middle;whiteSpace=wrap;rounded=0;" parent="1" vertex="1">
          <mxGeometry x="1120" y="1380" width="60" height="30" as="geometry" />
        </mxCell>
        <mxCell id="pfrqYCGvv3sASO-Da6oc-123" value="" style="line;strokeWidth=2;direction=south;html=1;" parent="1" vertex="1">
          <mxGeometry x="1085" y="1490" width="10" height="240" as="geometry" />
        </mxCell>
        <mxCell id="pfrqYCGvv3sASO-Da6oc-124" value="" style="line;strokeWidth=2;direction=south;html=1;" parent="1" vertex="1">
          <mxGeometry x="1205" y="1490" width="10" height="240" as="geometry" />
        </mxCell>
        <mxCell id="pfrqYCGvv3sASO-Da6oc-125" value="" style="line;strokeWidth=2;html=1;" parent="1" vertex="1">
          <mxGeometry x="1020" y="1550" width="260" height="10" as="geometry" />
        </mxCell>
        <mxCell id="pfrqYCGvv3sASO-Da6oc-126" value="" style="line;strokeWidth=2;html=1;" parent="1" vertex="1">
          <mxGeometry x="1020" y="1650" width="260" height="10" as="geometry" />
        </mxCell>
        <mxCell id="pfrqYCGvv3sASO-Da6oc-127" value="" style="line;strokeWidth=2;html=1;" parent="1" vertex="1">
          <mxGeometry x="1030" y="1410" width="260" height="10" as="geometry" />
        </mxCell>
        <mxCell id="pfrqYCGvv3sASO-Da6oc-128" value="" style="line;strokeWidth=2;html=1;" parent="1" vertex="1">
          <mxGeometry x="1030" y="1420" width="260" height="10" as="geometry" />
        </mxCell>
        <mxCell id="pfrqYCGvv3sASO-Da6oc-129" value="" style="line;strokeWidth=2;html=1;" parent="1" vertex="1">
          <mxGeometry x="1030" y="1430" width="260" height="10" as="geometry" />
        </mxCell>
        <mxCell id="pfrqYCGvv3sASO-Da6oc-130" value="" style="endArrow=none;html=1;rounded=0;" parent="1" edge="1">
          <mxGeometry width="50" height="50" relative="1" as="geometry">
            <mxPoint x="1105" y="1650" as="sourcePoint" />
            <mxPoint x="1190" y="1570" as="targetPoint" />
          </mxGeometry>
        </mxCell>
        <mxCell id="pfrqYCGvv3sASO-Da6oc-131" value="" style="endArrow=none;html=1;rounded=0;" parent="1" edge="1">
          <mxGeometry width="50" height="50" relative="1" as="geometry">
            <mxPoint x="1110" y="1570" as="sourcePoint" />
            <mxPoint x="1190" y="1650" as="targetPoint" />
          </mxGeometry>
        </mxCell>
        <mxCell id="pfrqYCGvv3sASO-Da6oc-132" value="" style="endArrow=none;html=1;rounded=0;" parent="1" edge="1">
          <mxGeometry width="50" height="50" relative="1" as="geometry">
            <mxPoint x="1020" y="1774" as="sourcePoint" />
            <mxPoint x="1042.5" y="1754" as="targetPoint" />
          </mxGeometry>
        </mxCell>
        <mxCell id="pfrqYCGvv3sASO-Da6oc-133" value="" style="endArrow=none;html=1;rounded=0;" parent="1" edge="1">
          <mxGeometry width="50" height="50" relative="1" as="geometry">
            <mxPoint x="1022.5" y="1754" as="sourcePoint" />
            <mxPoint x="1042.5" y="1774" as="targetPoint" />
          </mxGeometry>
        </mxCell>
        <mxCell id="pfrqYCGvv3sASO-Da6oc-134" value="" style="endArrow=none;html=1;rounded=0;" parent="1" edge="1">
          <mxGeometry width="50" height="50" relative="1" as="geometry">
            <mxPoint x="1057.5" y="1774" as="sourcePoint" />
            <mxPoint x="1080" y="1754" as="targetPoint" />
          </mxGeometry>
        </mxCell>
        <mxCell id="pfrqYCGvv3sASO-Da6oc-135" value="" style="endArrow=none;html=1;rounded=0;" parent="1" edge="1">
          <mxGeometry width="50" height="50" relative="1" as="geometry">
            <mxPoint x="1060" y="1754" as="sourcePoint" />
            <mxPoint x="1080" y="1774" as="targetPoint" />
          </mxGeometry>
        </mxCell>
        <mxCell id="pfrqYCGvv3sASO-Da6oc-136" value="" style="endArrow=none;html=1;rounded=0;" parent="1" edge="1">
          <mxGeometry width="50" height="50" relative="1" as="geometry">
            <mxPoint x="1095" y="1774" as="sourcePoint" />
            <mxPoint x="1117.5" y="1754" as="targetPoint" />
          </mxGeometry>
        </mxCell>
        <mxCell id="pfrqYCGvv3sASO-Da6oc-137" value="" style="endArrow=none;html=1;rounded=0;" parent="1" edge="1">
          <mxGeometry width="50" height="50" relative="1" as="geometry">
            <mxPoint x="1097.5" y="1754" as="sourcePoint" />
            <mxPoint x="1117.5" y="1774" as="targetPoint" />
          </mxGeometry>
        </mxCell>
        <mxCell id="pfrqYCGvv3sASO-Da6oc-138" value="" style="endArrow=none;html=1;rounded=0;" parent="1" edge="1">
          <mxGeometry width="50" height="50" relative="1" as="geometry">
            <mxPoint x="1130" y="1774" as="sourcePoint" />
            <mxPoint x="1152.5" y="1754" as="targetPoint" />
          </mxGeometry>
        </mxCell>
        <mxCell id="pfrqYCGvv3sASO-Da6oc-139" value="" style="endArrow=none;html=1;rounded=0;" parent="1" edge="1">
          <mxGeometry width="50" height="50" relative="1" as="geometry">
            <mxPoint x="1132.5" y="1754" as="sourcePoint" />
            <mxPoint x="1152.5" y="1774" as="targetPoint" />
          </mxGeometry>
        </mxCell>
        <mxCell id="pfrqYCGvv3sASO-Da6oc-140" value="" style="endArrow=none;html=1;rounded=0;" parent="1" edge="1">
          <mxGeometry width="50" height="50" relative="1" as="geometry">
            <mxPoint x="1160" y="1774" as="sourcePoint" />
            <mxPoint x="1182.5" y="1754" as="targetPoint" />
          </mxGeometry>
        </mxCell>
        <mxCell id="pfrqYCGvv3sASO-Da6oc-141" value="" style="endArrow=none;html=1;rounded=0;" parent="1" edge="1">
          <mxGeometry width="50" height="50" relative="1" as="geometry">
            <mxPoint x="1162.5" y="1754" as="sourcePoint" />
            <mxPoint x="1182.5" y="1774" as="targetPoint" />
          </mxGeometry>
        </mxCell>
        <mxCell id="pfrqYCGvv3sASO-Da6oc-142" value="" style="endArrow=none;html=1;rounded=0;" parent="1" edge="1">
          <mxGeometry width="50" height="50" relative="1" as="geometry">
            <mxPoint x="1192.5" y="1774" as="sourcePoint" />
            <mxPoint x="1215" y="1754" as="targetPoint" />
          </mxGeometry>
        </mxCell>
        <mxCell id="pfrqYCGvv3sASO-Da6oc-143" value="" style="endArrow=none;html=1;rounded=0;" parent="1" edge="1">
          <mxGeometry width="50" height="50" relative="1" as="geometry">
            <mxPoint x="1195" y="1754" as="sourcePoint" />
            <mxPoint x="1215" y="1774" as="targetPoint" />
          </mxGeometry>
        </mxCell>
        <mxCell id="pfrqYCGvv3sASO-Da6oc-144" value="" style="endArrow=none;html=1;rounded=0;" parent="1" edge="1">
          <mxGeometry width="50" height="50" relative="1" as="geometry">
            <mxPoint x="1220" y="1774" as="sourcePoint" />
            <mxPoint x="1242.5" y="1754" as="targetPoint" />
          </mxGeometry>
        </mxCell>
        <mxCell id="pfrqYCGvv3sASO-Da6oc-145" value="" style="endArrow=none;html=1;rounded=0;" parent="1" edge="1">
          <mxGeometry width="50" height="50" relative="1" as="geometry">
            <mxPoint x="1222.5" y="1754" as="sourcePoint" />
            <mxPoint x="1242.5" y="1774" as="targetPoint" />
          </mxGeometry>
        </mxCell>
        <mxCell id="pfrqYCGvv3sASO-Da6oc-146" value="" style="endArrow=none;html=1;rounded=0;" parent="1" edge="1">
          <mxGeometry width="50" height="50" relative="1" as="geometry">
            <mxPoint x="1250" y="1774" as="sourcePoint" />
            <mxPoint x="1272.5" y="1754" as="targetPoint" />
          </mxGeometry>
        </mxCell>
        <mxCell id="pfrqYCGvv3sASO-Da6oc-147" value="" style="endArrow=none;html=1;rounded=0;" parent="1" edge="1">
          <mxGeometry width="50" height="50" relative="1" as="geometry">
            <mxPoint x="1252.5" y="1754" as="sourcePoint" />
            <mxPoint x="1272.5" y="1774" as="targetPoint" />
          </mxGeometry>
        </mxCell>
        <mxCell id="pfrqYCGvv3sASO-Da6oc-148" value="&lt;h1 style=&quot;margin-top: 0px;&quot;&gt;Cross within fields&lt;/h1&gt;&lt;p&gt;A cross indicates an active field. a cross seems the cheapest draw solution&lt;/p&gt;" style="text;html=1;whiteSpace=wrap;overflow=hidden;rounded=0;" parent="1" vertex="1">
          <mxGeometry x="690" y="1550" width="180" height="130" as="geometry" />
        </mxCell>
        <mxCell id="pfrqYCGvv3sASO-Da6oc-149" value="&lt;h1 style=&quot;margin-top: 0px;&quot;&gt;&lt;span style=&quot;background-color: transparent; color: light-dark(rgb(0, 0, 0), rgb(255, 255, 255));&quot;&gt;Cross as a Level advanacement&lt;/span&gt;&lt;/h1&gt;&lt;h1 style=&quot;margin-top: 0px;&quot;&gt;&lt;span style=&quot;background-color: transparent; color: light-dark(rgb(0, 0, 0), rgb(255, 255, 255)); font-size: 12px; font-weight: normal;&quot;&gt;crosses at the bottom indicate your advancement in the current&lt;/span&gt;&lt;br&gt;&lt;/h1&gt;" style="text;html=1;whiteSpace=wrap;overflow=hidden;rounded=0;" parent="1" vertex="1">
          <mxGeometry x="690" y="1730" width="180" height="170" as="geometry" />
        </mxCell>
        <mxCell id="pfrqYCGvv3sASO-Da6oc-150" value="" style="endArrow=none;dashed=1;html=1;rounded=0;exitX=1;exitY=0.5;exitDx=0;exitDy=0;" parent="1" source="pfrqYCGvv3sASO-Da6oc-149" edge="1">
          <mxGeometry width="50" height="50" relative="1" as="geometry">
            <mxPoint x="900" y="1780" as="sourcePoint" />
            <mxPoint x="1020" y="1770" as="targetPoint" />
          </mxGeometry>
        </mxCell>
        <mxCell id="pfrqYCGvv3sASO-Da6oc-151" value="" style="endArrow=none;dashed=1;html=1;rounded=0;" parent="1" source="pfrqYCGvv3sASO-Da6oc-148" edge="1">
          <mxGeometry width="50" height="50" relative="1" as="geometry">
            <mxPoint x="870" y="1665" as="sourcePoint" />
            <mxPoint x="1140" y="1620" as="targetPoint" />
          </mxGeometry>
        </mxCell>
        <mxCell id="pfrqYCGvv3sASO-Da6oc-152" value="" style="shape=flexArrow;endArrow=classic;html=1;rounded=0;" parent="1" edge="1">
          <mxGeometry width="50" height="50" relative="1" as="geometry">
            <mxPoint x="1149.09" y="1840" as="sourcePoint" />
            <mxPoint x="1149.09" y="1960" as="targetPoint" />
          </mxGeometry>
        </mxCell>
        <mxCell id="pfrqYCGvv3sASO-Da6oc-153" value="&lt;h1 style=&quot;margin-top: 0px;&quot;&gt;Gameplay&lt;/h1&gt;&lt;p&gt;The gameplay consists of appearing crosses which have to be repeated. It seems possible and easy to implement I guess.&amp;nbsp;&lt;/p&gt;" style="text;html=1;whiteSpace=wrap;overflow=hidden;rounded=0;" parent="1" vertex="1">
          <mxGeometry x="1470" y="1460" width="180" height="120" as="geometry" />
        </mxCell>
        <mxCell id="pfrqYCGvv3sASO-Da6oc-154" value="" style="shape=flexArrow;endArrow=classic;html=1;rounded=0;" parent="1" edge="1">
          <mxGeometry width="50" height="50" relative="1" as="geometry">
            <mxPoint x="1169.09" y="2480" as="sourcePoint" />
            <mxPoint x="1169.09" y="2600" as="targetPoint" />
          </mxGeometry>
        </mxCell>
        <mxCell id="pfrqYCGvv3sASO-Da6oc-155" value="&lt;h1 style=&quot;margin-top: 0px;&quot;&gt;Sound and Brain&lt;/h1&gt;&lt;p&gt;Through some testing with sounds and the actual gameplay, one might get the feeling of a hospital, since you have to think for this game and furthermore the sounds reminds one of the sound of weird medical equiment. A new story is created. You are now a doctor and try to make a complicated brainsurgery&lt;/p&gt;" style="text;html=1;whiteSpace=wrap;overflow=hidden;rounded=0;" parent="1" vertex="1">
          <mxGeometry x="670" y="2080" width="180" height="240" as="geometry" />
        </mxCell>
        <mxCell id="pfrqYCGvv3sASO-Da6oc-156" value="level_play&lt;div&gt;(execute_game_playing_state)&lt;/div&gt;" style="rounded=0;whiteSpace=wrap;html=1;" parent="1" vertex="1">
          <mxGeometry x="-1560" y="1480" width="200" height="80" as="geometry" />
        </mxCell>
        <mxCell id="pfrqYCGvv3sASO-Da6oc-158" value="execute_display_sequence_state" style="rounded=0;whiteSpace=wrap;html=1;" parent="1" vertex="1">
          <mxGeometry x="-1200" y="1490" width="220" height="60" as="geometry" />
        </mxCell>
        <mxCell id="pfrqYCGvv3sASO-Da6oc-159" value="&lt;h1 style=&quot;margin-top: 0px;&quot;&gt;Possible states of execute_game_playing_state&lt;/h1&gt;&lt;p&gt;execute_display_sequence_state&lt;br&gt;execute_display_sequence_state&lt;/p&gt;" style="text;html=1;whiteSpace=wrap;overflow=hidden;rounded=0;" parent="1" vertex="1">
          <mxGeometry x="-1550" y="1340" width="350" height="130" as="geometry" />
        </mxCell>
        <mxCell id="pfrqYCGvv3sASO-Da6oc-160" value="- Display_Gamefield&lt;div&gt;- Display_LevelAdvancement&lt;br&gt;-Display_player&lt;br&gt;- draw_square_filled&lt;br&gt;print sttrings&lt;/div&gt;" style="text;html=1;align=center;verticalAlign=middle;whiteSpace=wrap;rounded=0;" parent="1" vertex="1">
          <mxGeometry x="-1190" y="1580" width="220" height="100" as="geometry" />
        </mxCell>
        <mxCell id="LFHnz0v82tFLA9lAuQO0-1" value="Optimizations" style="rounded=0;whiteSpace=wrap;html=1;fillColor=#008a00;fontColor=#ffffff;strokeColor=#005700;" vertex="1" parent="1">
          <mxGeometry x="2990" y="-1005" width="120" height="60" as="geometry" />
        </mxCell>
        <mxCell id="LFHnz0v82tFLA9lAuQO0-2" value="&lt;h1 style=&quot;margin-top: 0px;&quot;&gt;Model Object&lt;/h1&gt;&lt;div&gt;my struct squareObject has two function pointers. these two function pointers can be very useful, since they can be assigend to a lot of functions. The core idea behind this way, is to create different functions which may simulate different addings onto the x or the y. For example, there is a function which increases the internal x value only by one, but a different function which can increase the function by one or three alternately would be very helpful too. In the end only the increase by one function is needed and therefore the functionpointers are overkill.&amp;nbsp;&lt;/div&gt;&lt;div style=&quot;color: rgb(212, 212, 212); background-color: rgb(30, 30, 30); font-family: Consolas, &amp;quot;Courier New&amp;quot;, monospace; font-size: 14px; line-height: 19px; white-space: pre;&quot;&gt;&lt;div&gt;&lt;span style=&quot;color: rgb(86, 156, 214);&quot;&gt;struct&lt;/span&gt; &lt;span style=&quot;color: rgb(78, 201, 176);&quot;&gt;SquareObject&lt;/span&gt;{&lt;/div&gt;&lt;div&gt;&amp;nbsp; &amp;nbsp; &lt;span style=&quot;color: rgb(86, 156, 214);&quot;&gt;int&lt;/span&gt; &lt;span style=&quot;color: rgb(156, 220, 254);&quot;&gt;x&lt;/span&gt;; &lt;/div&gt;&lt;div&gt;&amp;nbsp; &amp;nbsp; &lt;span style=&quot;color: rgb(86, 156, 214);&quot;&gt;int&lt;/span&gt; &lt;span style=&quot;color: rgb(156, 220, 254);&quot;&gt;y&lt;/span&gt;;&lt;/div&gt;&lt;div&gt;&amp;nbsp; &amp;nbsp; &lt;span style=&quot;color: rgb(86, 156, 214);&quot;&gt;void&lt;/span&gt; (*&lt;span style=&quot;color: rgb(156, 220, 254);&quot;&gt;execute_display_functions&lt;/span&gt;)(&lt;span style=&quot;color: rgb(86, 156, 214);&quot;&gt;unsigned&lt;/span&gt; &lt;span style=&quot;color: rgb(86, 156, 214);&quot;&gt;int&lt;/span&gt; i);&lt;/div&gt;&lt;br&gt;&lt;div&gt;&amp;nbsp; &amp;nbsp; &lt;span style=&quot;color: rgb(106, 153, 85);&quot;&gt;//insane trade off to safe cycles instead of ram&lt;/span&gt;&lt;/div&gt;&lt;div&gt;&amp;nbsp; &amp;nbsp; &lt;span style=&quot;color: rgb(86, 156, 214);&quot;&gt;void&lt;/span&gt; (*&lt;span style=&quot;color: rgb(156, 220, 254);&quot;&gt;addrandom_x&lt;/span&gt;)(&lt;span style=&quot;color: rgb(86, 156, 214);&quot;&gt;int&lt;/span&gt; id);&lt;/div&gt;&lt;div&gt;&amp;nbsp; &amp;nbsp; &lt;span style=&quot;color: rgb(86, 156, 214);&quot;&gt;void&lt;/span&gt; (*&lt;span style=&quot;color: rgb(156, 220, 254);&quot;&gt;addrandom_y&lt;/span&gt;)(&lt;span style=&quot;color: rgb(86, 156, 214);&quot;&gt;int&lt;/span&gt; id);&lt;/div&gt;&lt;div&gt;&amp;nbsp; &amp;nbsp; &lt;/div&gt;&lt;div&gt;&amp;nbsp; &amp;nbsp; &lt;span style=&quot;color: rgb(86, 156, 214);&quot;&gt;unsigned&lt;/span&gt; &lt;span style=&quot;color: rgb(86, 156, 214);&quot;&gt;int&lt;/span&gt; &lt;span style=&quot;color: rgb(156, 220, 254);&quot;&gt;scaling_factor&lt;/span&gt;;&lt;/div&gt;&lt;div&gt;&amp;nbsp; &amp;nbsp; &lt;span style=&quot;color: rgb(86, 156, 214);&quot;&gt;unsigned&lt;/span&gt; &lt;span style=&quot;color: rgb(86, 156, 214);&quot;&gt;int&lt;/span&gt; &lt;span style=&quot;color: rgb(156, 220, 254);&quot;&gt;scaling_factor_toggle&lt;/span&gt;;&lt;/div&gt;&lt;div&gt;};&lt;/div&gt;&lt;br&gt;&lt;/div&gt;&lt;div style=&quot;color: rgb(212, 212, 212); background-color: rgb(30, 30, 30); font-family: Consolas, &amp;quot;Courier New&amp;quot;, monospace; font-size: 14px; line-height: 19px; white-space: pre;&quot;&gt;&lt;br&gt;&lt;/div&gt;&lt;div style=&quot;color: rgb(212, 212, 212); background-color: rgb(30, 30, 30); font-family: Consolas, &amp;quot;Courier New&amp;quot;, monospace; font-size: 14px; line-height: 19px; white-space: pre;&quot;&gt;The New Version looks like this &lt;/div&gt;&lt;div style=&quot;color: rgb(212, 212, 212); background-color: rgb(30, 30, 30); font-family: Consolas, &amp;quot;Courier New&amp;quot;, monospace; font-size: 14px; line-height: 19px; white-space: pre;&quot;&gt;&lt;br&gt;&lt;/div&gt;&lt;div style=&quot;color: rgb(212, 212, 212); background-color: rgb(30, 30, 30); font-family: Consolas, &amp;quot;Courier New&amp;quot;, monospace; font-size: 14px; line-height: 19px; white-space: pre;&quot;&gt;&lt;div style=&quot;line-height: 19px;&quot;&gt;&lt;div&gt;&lt;span style=&quot;color: rgb(86, 156, 214);&quot;&gt;struct&lt;/span&gt; &lt;span style=&quot;color: rgb(78, 201, 176);&quot;&gt;SquareObject&lt;/span&gt;{&lt;/div&gt;&lt;div&gt;&amp;nbsp; &amp;nbsp; &lt;span style=&quot;color: rgb(86, 156, 214);&quot;&gt;int&lt;/span&gt; &lt;span style=&quot;color: rgb(156, 220, 254);&quot;&gt;x&lt;/span&gt;; &lt;/div&gt;&lt;div&gt;&amp;nbsp; &amp;nbsp; &lt;span style=&quot;color: rgb(86, 156, 214);&quot;&gt;int&lt;/span&gt; &lt;span style=&quot;color: rgb(156, 220, 254);&quot;&gt;y&lt;/span&gt;;&lt;/div&gt;&lt;div&gt;&amp;nbsp; &amp;nbsp; &lt;span style=&quot;color: rgb(86, 156, 214);&quot;&gt;void&lt;/span&gt; (*&lt;span style=&quot;color: rgb(156, 220, 254);&quot;&gt;execute_display_functions&lt;/span&gt;)(&lt;span style=&quot;color: rgb(86, 156, 214);&quot;&gt;unsigned&lt;/span&gt; &lt;span style=&quot;color: rgb(86, 156, 214);&quot;&gt;int&lt;/span&gt; i);&lt;/div&gt;&lt;br&gt;&lt;div&gt;&amp;nbsp; &amp;nbsp; &lt;span style=&quot;color: rgb(86, 156, 214);&quot;&gt;int&lt;/span&gt; &lt;span style=&quot;color: rgb(156, 220, 254);&quot;&gt;change_of_x&lt;/span&gt;;&lt;/div&gt;&lt;div&gt;&amp;nbsp; &amp;nbsp; &lt;span style=&quot;color: rgb(86, 156, 214);&quot;&gt;int&lt;/span&gt; &lt;span style=&quot;color: rgb(156, 220, 254);&quot;&gt;change_of_y&lt;/span&gt;;&lt;/div&gt;&lt;div&gt;&amp;nbsp; &amp;nbsp; &lt;/div&gt;&lt;div&gt;&amp;nbsp; &amp;nbsp; &lt;span style=&quot;color: rgb(86, 156, 214);&quot;&gt;unsigned&lt;/span&gt; &lt;span style=&quot;color: rgb(86, 156, 214);&quot;&gt;int&lt;/span&gt; &lt;span style=&quot;color: rgb(156, 220, 254);&quot;&gt;scaling_factor&lt;/span&gt;;&lt;/div&gt;&lt;div&gt;&amp;nbsp; &amp;nbsp; &lt;span style=&quot;color: rgb(86, 156, 214);&quot;&gt;unsigned&lt;/span&gt; &lt;span style=&quot;color: rgb(86, 156, 214);&quot;&gt;int&lt;/span&gt; &lt;span style=&quot;color: rgb(156, 220, 254);&quot;&gt;scaling_factor_toggle&lt;/span&gt;;&lt;/div&gt;&lt;div&gt;};&lt;/div&gt;&lt;div&gt;&lt;br&gt;&lt;/div&gt;&lt;div&gt;and the following functions can be grouped into one change_square_coordinates&lt;/div&gt;&lt;div&gt;&lt;br&gt;&lt;/div&gt;&lt;div&gt;&lt;div style=&quot;line-height: 19px;&quot;&gt;&lt;div&gt;&lt;span style=&quot;color: rgb(86, 156, 214);&quot;&gt;void&lt;/span&gt; &lt;span style=&quot;color: rgb(220, 220, 170);&quot;&gt;change_square_coordinates&lt;/span&gt;(&lt;span style=&quot;color: rgb(86, 156, 214);&quot;&gt;int&lt;/span&gt; &lt;span style=&quot;color: rgb(156, 220, 254);&quot;&gt;id&lt;/span&gt;){&lt;/div&gt;&lt;div&gt;&amp;nbsp; &amp;nbsp; &lt;span style=&quot;color: rgb(156, 220, 254);&quot;&gt;displayed_squares&lt;/span&gt;[&lt;span style=&quot;color: rgb(156, 220, 254);&quot;&gt;id&lt;/span&gt;].&lt;span style=&quot;color: rgb(156, 220, 254);&quot;&gt;y&lt;/span&gt; += &lt;span style=&quot;color: rgb(156, 220, 254);&quot;&gt;displayed_squares&lt;/span&gt;[&lt;span style=&quot;color: rgb(156, 220, 254);&quot;&gt;id&lt;/span&gt;].&lt;span style=&quot;color: rgb(156, 220, 254);&quot;&gt;change_of_y&lt;/span&gt;;&lt;/div&gt;&lt;div&gt;&amp;nbsp; &amp;nbsp; &lt;span style=&quot;color: rgb(197, 134, 192);&quot;&gt;if&lt;/span&gt;(&lt;span style=&quot;color: rgb(156, 220, 254);&quot;&gt;displayed_squares&lt;/span&gt;[&lt;span style=&quot;color: rgb(156, 220, 254);&quot;&gt;id&lt;/span&gt;].&lt;span style=&quot;color: rgb(156, 220, 254);&quot;&gt;x&lt;/span&gt; &amp;gt; &lt;span style=&quot;color: rgb(181, 206, 168);&quot;&gt;25&lt;/span&gt;){&lt;/div&gt;&lt;div&gt;&amp;nbsp; &amp;nbsp; &amp;nbsp; &amp;nbsp; &lt;span style=&quot;color: rgb(156, 220, 254);&quot;&gt;displayed_squares&lt;/span&gt;[&lt;span style=&quot;color: rgb(156, 220, 254);&quot;&gt;id&lt;/span&gt;].&lt;span style=&quot;color: rgb(156, 220, 254);&quot;&gt;change_of_y&lt;/span&gt; *= -&lt;span style=&quot;color: rgb(181, 206, 168);&quot;&gt;1&lt;/span&gt;;&lt;/div&gt;&lt;div&gt;&amp;nbsp; &amp;nbsp; }&lt;/div&gt;&lt;br&gt;&lt;div&gt;&amp;nbsp; &amp;nbsp; &lt;span style=&quot;color: rgb(156, 220, 254);&quot;&gt;displayed_squares&lt;/span&gt;[&lt;span style=&quot;color: rgb(156, 220, 254);&quot;&gt;id&lt;/span&gt;].&lt;span style=&quot;color: rgb(156, 220, 254);&quot;&gt;y&lt;/span&gt; += &lt;span style=&quot;color: rgb(156, 220, 254);&quot;&gt;displayed_squares&lt;/span&gt;[&lt;span style=&quot;color: rgb(156, 220, 254);&quot;&gt;id&lt;/span&gt;].&lt;span style=&quot;color: rgb(156, 220, 254);&quot;&gt;change_of_y&lt;/span&gt;;&lt;/div&gt;&lt;div&gt;&amp;nbsp; &amp;nbsp; &lt;span style=&quot;color: rgb(197, 134, 192);&quot;&gt;if&lt;/span&gt;(&lt;span style=&quot;color: rgb(156, 220, 254);&quot;&gt;displayed_squares&lt;/span&gt;[&lt;span style=&quot;color: rgb(156, 220, 254);&quot;&gt;id&lt;/span&gt;].&lt;span style=&quot;color: rgb(156, 220, 254);&quot;&gt;y&lt;/span&gt; &amp;gt; &lt;span style=&quot;color: rgb(181, 206, 168);&quot;&gt;25&lt;/span&gt;){&lt;/div&gt;&lt;div&gt;&amp;nbsp; &amp;nbsp; &amp;nbsp; &amp;nbsp; &lt;span style=&quot;color: rgb(156, 220, 254);&quot;&gt;displayed_squares&lt;/span&gt;[&lt;span style=&quot;color: rgb(156, 220, 254);&quot;&gt;id&lt;/span&gt;].&lt;span style=&quot;color: rgb(156, 220, 254);&quot;&gt;change_of_y&lt;/span&gt; *= -&lt;span style=&quot;color: rgb(181, 206, 168);&quot;&gt;1&lt;/span&gt;;&lt;/div&gt;&lt;div&gt;&amp;nbsp; &amp;nbsp; }&lt;/div&gt;&lt;div&gt;}&lt;/div&gt;&lt;div&gt;&lt;br&gt;&lt;/div&gt;&lt;div&gt;Yes, there are more array access, but less function calls, since this is replaced&lt;/div&gt;&lt;div&gt; too with the other one. &lt;/div&gt;&lt;div&gt;&lt;div style=&quot;line-height: 19px;&quot;&gt;&lt;div&gt;&lt;span style=&quot;color: rgb(156, 220, 254);&quot;&gt;displayed_squares&lt;/span&gt;[&lt;span style=&quot;color: rgb(181, 206, 168);&quot;&gt;1&lt;/span&gt;].&lt;span style=&quot;color: rgb(220, 220, 170);&quot;&gt;addrandom_x&lt;/span&gt;(&lt;span style=&quot;color: rgb(181, 206, 168);&quot;&gt;1&lt;/span&gt;);&lt;/div&gt;&lt;div&gt;&amp;nbsp; &amp;nbsp; &lt;span style=&quot;color: rgb(156, 220, 254);&quot;&gt;displayed_squares&lt;/span&gt;[&lt;span style=&quot;color: rgb(181, 206, 168);&quot;&gt;2&lt;/span&gt;].&lt;span style=&quot;color: rgb(220, 220, 170);&quot;&gt;addrandom_x&lt;/span&gt;(&lt;span style=&quot;color: rgb(181, 206, 168);&quot;&gt;2&lt;/span&gt;);&lt;/div&gt;&lt;div&gt;&amp;nbsp; &amp;nbsp; &lt;span style=&quot;color: rgb(156, 220, 254);&quot;&gt;displayed_squares&lt;/span&gt;[&lt;span style=&quot;color: rgb(181, 206, 168);&quot;&gt;3&lt;/span&gt;].&lt;span style=&quot;color: rgb(220, 220, 170);&quot;&gt;addrandom_x&lt;/span&gt;(&lt;span style=&quot;color: rgb(181, 206, 168);&quot;&gt;3&lt;/span&gt;);&lt;/div&gt;&lt;div&gt;&amp;nbsp; &amp;nbsp; &lt;span style=&quot;color: rgb(156, 220, 254);&quot;&gt;displayed_squares&lt;/span&gt;[&lt;span style=&quot;color: rgb(181, 206, 168);&quot;&gt;4&lt;/span&gt;].&lt;span style=&quot;color: rgb(220, 220, 170);&quot;&gt;addrandom_x&lt;/span&gt;(&lt;span style=&quot;color: rgb(181, 206, 168);&quot;&gt;4&lt;/span&gt;);&lt;/div&gt;&lt;div&gt;&amp;nbsp; &amp;nbsp; &lt;span style=&quot;color: rgb(156, 220, 254);&quot;&gt;displayed_squares&lt;/span&gt;[&lt;span style=&quot;color: rgb(181, 206, 168);&quot;&gt;5&lt;/span&gt;].&lt;span style=&quot;color: rgb(220, 220, 170);&quot;&gt;addrandom_x&lt;/span&gt;(&lt;span style=&quot;color: rgb(181, 206, 168);&quot;&gt;5&lt;/span&gt;);&lt;/div&gt;&lt;div&gt;&amp;nbsp; &amp;nbsp; &lt;span style=&quot;color: rgb(156, 220, 254);&quot;&gt;displayed_squares&lt;/span&gt;[&lt;span style=&quot;color: rgb(181, 206, 168);&quot;&gt;6&lt;/span&gt;].&lt;span style=&quot;color: rgb(220, 220, 170);&quot;&gt;addrandom_x&lt;/span&gt;(&lt;span style=&quot;color: rgb(181, 206, 168);&quot;&gt;6&lt;/span&gt;);&lt;/div&gt;&lt;div&gt;&amp;nbsp; &amp;nbsp; &lt;span style=&quot;color: rgb(156, 220, 254);&quot;&gt;displayed_squares&lt;/span&gt;[&lt;span style=&quot;color: rgb(181, 206, 168);&quot;&gt;7&lt;/span&gt;].&lt;span style=&quot;color: rgb(220, 220, 170);&quot;&gt;addrandom_x&lt;/span&gt;(&lt;span style=&quot;color: rgb(181, 206, 168);&quot;&gt;7&lt;/span&gt;);&lt;/div&gt;&lt;div&gt;&amp;nbsp; &amp;nbsp; &lt;span style=&quot;color: rgb(156, 220, 254);&quot;&gt;displayed_squares&lt;/span&gt;[&lt;span style=&quot;color: rgb(181, 206, 168);&quot;&gt;8&lt;/span&gt;].&lt;span style=&quot;color: rgb(220, 220, 170);&quot;&gt;addrandom_x&lt;/span&gt;(&lt;span style=&quot;color: rgb(181, 206, 168);&quot;&gt;8&lt;/span&gt;);&lt;/div&gt;&lt;div&gt;&amp;nbsp; &amp;nbsp; &lt;span style=&quot;color: rgb(156, 220, 254);&quot;&gt;displayed_squares&lt;/span&gt;[&lt;span style=&quot;color: rgb(181, 206, 168);&quot;&gt;0&lt;/span&gt;].&lt;span style=&quot;color: rgb(220, 220, 170);&quot;&gt;addrandom_y&lt;/span&gt;(&lt;span style=&quot;color: rgb(181, 206, 168);&quot;&gt;0&lt;/span&gt;);&lt;/div&gt;&lt;div&gt;&amp;nbsp; &amp;nbsp; &lt;span style=&quot;color: rgb(156, 220, 254);&quot;&gt;displayed_squares&lt;/span&gt;[&lt;span style=&quot;color: rgb(181, 206, 168);&quot;&gt;1&lt;/span&gt;].&lt;span style=&quot;color: rgb(220, 220, 170);&quot;&gt;addrandom_y&lt;/span&gt;(&lt;span style=&quot;color: rgb(181, 206, 168);&quot;&gt;1&lt;/span&gt;);&lt;/div&gt;&lt;div&gt;&amp;nbsp; &amp;nbsp; &lt;span style=&quot;color: rgb(156, 220, 254);&quot;&gt;displayed_squares&lt;/span&gt;[&lt;span style=&quot;color: rgb(181, 206, 168);&quot;&gt;2&lt;/span&gt;].&lt;span style=&quot;color: rgb(220, 220, 170);&quot;&gt;addrandom_y&lt;/span&gt;(&lt;span style=&quot;color: rgb(181, 206, 168);&quot;&gt;2&lt;/span&gt;);&lt;/div&gt;&lt;div&gt;&amp;nbsp; &amp;nbsp; &lt;span style=&quot;color: rgb(156, 220, 254);&quot;&gt;displayed_squares&lt;/span&gt;[&lt;span style=&quot;color: rgb(181, 206, 168);&quot;&gt;3&lt;/span&gt;].&lt;span style=&quot;color: rgb(220, 220, 170);&quot;&gt;addrandom_y&lt;/span&gt;(&lt;span style=&quot;color: rgb(181, 206, 168);&quot;&gt;3&lt;/span&gt;);&lt;/div&gt;&lt;div&gt;&amp;nbsp; &amp;nbsp; &lt;span style=&quot;color: rgb(156, 220, 254);&quot;&gt;displayed_squares&lt;/span&gt;[&lt;span style=&quot;color: rgb(181, 206, 168);&quot;&gt;4&lt;/span&gt;].&lt;span style=&quot;color: rgb(220, 220, 170);&quot;&gt;addrandom_y&lt;/span&gt;(&lt;span style=&quot;color: rgb(181, 206, 168);&quot;&gt;4&lt;/span&gt;);&lt;/div&gt;&lt;div&gt;&amp;nbsp; &amp;nbsp; &lt;span style=&quot;color: rgb(156, 220, 254);&quot;&gt;displayed_squares&lt;/span&gt;[&lt;span style=&quot;color: rgb(181, 206, 168);&quot;&gt;5&lt;/span&gt;].&lt;span style=&quot;color: rgb(220, 220, 170);&quot;&gt;addrandom_y&lt;/span&gt;(&lt;span style=&quot;color: rgb(181, 206, 168);&quot;&gt;5&lt;/span&gt;);&lt;/div&gt;&lt;div&gt;&amp;nbsp; &amp;nbsp; &lt;span style=&quot;color: rgb(156, 220, 254);&quot;&gt;displayed_squares&lt;/span&gt;[&lt;span style=&quot;color: rgb(181, 206, 168);&quot;&gt;6&lt;/span&gt;].&lt;span style=&quot;color: rgb(220, 220, 170);&quot;&gt;addrandom_y&lt;/span&gt;(&lt;span style=&quot;color: rgb(181, 206, 168);&quot;&gt;6&lt;/span&gt;);&lt;/div&gt;&lt;div&gt;&amp;nbsp; &amp;nbsp; &lt;span style=&quot;color: rgb(156, 220, 254);&quot;&gt;displayed_squares&lt;/span&gt;[&lt;span style=&quot;color: rgb(181, 206, 168);&quot;&gt;7&lt;/span&gt;].&lt;span style=&quot;color: rgb(220, 220, 170);&quot;&gt;addrandom_y&lt;/span&gt;(&lt;span style=&quot;color: rgb(181, 206, 168);&quot;&gt;7&lt;/span&gt;);&lt;/div&gt;&lt;div&gt;&amp;nbsp; &amp;nbsp; &lt;span style=&quot;color: rgb(156, 220, 254);&quot;&gt;displayed_squares&lt;/span&gt;[&lt;span style=&quot;color: rgb(181, 206, 168);&quot;&gt;8&lt;/span&gt;].&lt;span style=&quot;color: rgb(220, 220, 170);&quot;&gt;addrandom_y&lt;/span&gt;(&lt;span style=&quot;color: rgb(181, 206, 168);&quot;&gt;8&lt;/span&gt;);&lt;/div&gt;&lt;div&gt;&lt;br&gt;&lt;/div&gt;&lt;div&gt;&lt;br&gt;&lt;/div&gt;&lt;div&gt;&lt;br&gt;&lt;/div&gt;&lt;div&gt;&lt;div style=&quot;line-height: 19px;&quot;&gt;&lt;div&gt;&lt;span style=&quot;color: rgb(86, 156, 214);&quot;&gt;void&lt;/span&gt; &lt;span style=&quot;color: rgb(220, 220, 170);&quot;&gt;Add_Movement&lt;/span&gt;()&lt;/div&gt;&lt;div&gt;{&lt;/div&gt;&lt;div&gt;&amp;nbsp; &amp;nbsp; &lt;span style=&quot;color: rgb(220, 220, 170);&quot;&gt;change_square_coordinates&lt;/span&gt;(&lt;span style=&quot;color: rgb(181, 206, 168);&quot;&gt;0&lt;/span&gt;);&lt;/div&gt;&lt;div&gt;&amp;nbsp; &amp;nbsp; &lt;span style=&quot;color: rgb(220, 220, 170);&quot;&gt;change_square_coordinates&lt;/span&gt;(&lt;span style=&quot;color: rgb(181, 206, 168);&quot;&gt;1&lt;/span&gt;);&lt;/div&gt;&lt;div&gt;&amp;nbsp; &amp;nbsp; &lt;span style=&quot;color: rgb(220, 220, 170);&quot;&gt;change_square_coordinates&lt;/span&gt;(&lt;span style=&quot;color: rgb(181, 206, 168);&quot;&gt;2&lt;/span&gt;);&lt;/div&gt;&lt;div&gt;&amp;nbsp; &amp;nbsp; &lt;span style=&quot;color: rgb(220, 220, 170);&quot;&gt;change_square_coordinates&lt;/span&gt;(&lt;span style=&quot;color: rgb(181, 206, 168);&quot;&gt;3&lt;/span&gt;);&lt;/div&gt;&lt;div&gt;&amp;nbsp; &amp;nbsp; &lt;span style=&quot;color: rgb(220, 220, 170);&quot;&gt;change_square_coordinates&lt;/span&gt;(&lt;span style=&quot;color: rgb(181, 206, 168);&quot;&gt;4&lt;/span&gt;);&lt;/div&gt;&lt;div&gt;&amp;nbsp; &amp;nbsp; &lt;span style=&quot;color: rgb(220, 220, 170);&quot;&gt;change_square_coordinates&lt;/span&gt;(&lt;span style=&quot;color: rgb(181, 206, 168);&quot;&gt;5&lt;/span&gt;);&lt;/div&gt;&lt;div&gt;&amp;nbsp; &amp;nbsp; &lt;span style=&quot;color: rgb(220, 220, 170);&quot;&gt;change_square_coordinates&lt;/span&gt;(&lt;span style=&quot;color: rgb(181, 206, 168);&quot;&gt;6&lt;/span&gt;);&lt;/div&gt;&lt;div&gt;&amp;nbsp; &amp;nbsp; &lt;span style=&quot;color: rgb(220, 220, 170);&quot;&gt;change_square_coordinates&lt;/span&gt;(&lt;span style=&quot;color: rgb(181, 206, 168);&quot;&gt;7&lt;/span&gt;);&lt;/div&gt;&lt;div&gt;&amp;nbsp; &amp;nbsp; &lt;span style=&quot;color: rgb(220, 220, 170);&quot;&gt;change_square_coordinates&lt;/span&gt;(&lt;span style=&quot;color: rgb(181, 206, 168);&quot;&gt;8&lt;/span&gt;);&lt;/div&gt;&lt;div&gt;}&lt;/div&gt;&lt;div&gt;&lt;br&gt;&lt;/div&gt;&lt;div&gt;The cycles improved in vide now it is about ~30000 to ~34000&lt;/div&gt;&lt;div&gt;&lt;br&gt;&lt;/div&gt;&lt;div&gt;well a function call is still necessary, which can be optimized with defines and macro. &lt;/div&gt;&lt;div&gt;Branching is slow too. The ifs can be optimized too which shifting&lt;/div&gt;&lt;div&gt;&lt;br&gt;&lt;/div&gt;&lt;div&gt;I tried to implement the idea and this is the result, but it seems the cycles did not have change&lt;/div&gt;&lt;div&gt;&lt;div style=&quot;line-height: 19px;&quot;&gt;&lt;div&gt;&lt;span style=&quot;color: rgb(86, 156, 214);&quot;&gt;int&lt;/span&gt; &lt;span style=&quot;color: rgb(156, 220, 254);&quot;&gt;flip_sign&lt;/span&gt;;&lt;/div&gt;&lt;div&gt;&lt;span style=&quot;color: rgb(197, 134, 192);&quot;&gt;#define&lt;/span&gt;&lt;span style=&quot;color: rgb(86, 156, 214);&quot;&gt; &lt;/span&gt;&lt;span style=&quot;color: rgb(86, 156, 214);&quot;&gt;UPDATE_COORDINATES&lt;/span&gt;&lt;span style=&quot;color: rgb(86, 156, 214);&quot;&gt;(&lt;/span&gt;&lt;span style=&quot;color: rgb(156, 220, 254);&quot;&gt;coordinates&lt;/span&gt;&lt;span style=&quot;color: rgb(86, 156, 214);&quot;&gt;, &lt;/span&gt;&lt;span style=&quot;color: rgb(156, 220, 254);&quot;&gt;change&lt;/span&gt;&lt;span style=&quot;color: rgb(86, 156, 214);&quot;&gt;) &lt;/span&gt;&lt;span style=&quot;color: rgb(215, 186, 125);&quot;&gt;\&lt;/span&gt;&lt;/div&gt;&lt;div&gt;&lt;span style=&quot;color: rgb(86, 156, 214);&quot;&gt;&amp;nbsp; &amp;nbsp; &lt;/span&gt;&lt;span style=&quot;color: rgb(197, 134, 192);&quot;&gt;do&lt;/span&gt;&lt;span style=&quot;color: rgb(86, 156, 214);&quot;&gt; { &lt;/span&gt;&lt;span style=&quot;color: rgb(215, 186, 125);&quot;&gt;\&lt;/span&gt;&lt;/div&gt;&lt;div&gt;&lt;span style=&quot;color: rgb(86, 156, 214);&quot;&gt;&amp;nbsp; &amp;nbsp; (coordinates) &lt;/span&gt;+=&lt;span style=&quot;color: rgb(86, 156, 214);&quot;&gt; (change); &lt;/span&gt;&lt;span style=&quot;color: rgb(215, 186, 125);&quot;&gt;\&lt;/span&gt;&lt;/div&gt;&lt;div&gt;&lt;span style=&quot;color: rgb(86, 156, 214);&quot;&gt;&amp;nbsp; &amp;nbsp; &lt;/span&gt;&lt;span style=&quot;color: rgb(156, 220, 254);&quot;&gt;flip_sign&lt;/span&gt;&lt;span style=&quot;color: rgb(86, 156, 214);&quot;&gt; &lt;/span&gt;=&lt;span style=&quot;color: rgb(86, 156, 214);&quot;&gt; (((coordinates) &lt;/span&gt;&amp;gt;&lt;span style=&quot;color: rgb(86, 156, 214);&quot;&gt; &lt;/span&gt;&lt;span style=&quot;color: rgb(181, 206, 168);&quot;&gt;25&lt;/span&gt;&lt;span style=&quot;color: rgb(86, 156, 214);&quot;&gt;) &lt;/span&gt;|&lt;span style=&quot;color: rgb(86, 156, 214);&quot;&gt; ((coordinates) &lt;/span&gt;&amp;lt;&lt;span style=&quot;color: rgb(86, 156, 214);&quot;&gt; &lt;/span&gt;-&lt;span style=&quot;color: rgb(181, 206, 168);&quot;&gt;25&lt;/span&gt;&lt;span style=&quot;color: rgb(86, 156, 214);&quot;&gt;)); &lt;/span&gt;&lt;span style=&quot;color: rgb(215, 186, 125);&quot;&gt;\&lt;/span&gt;&lt;/div&gt;&lt;div&gt;&lt;span style=&quot;color: rgb(86, 156, 214);&quot;&gt;&amp;nbsp; &amp;nbsp; change &lt;/span&gt;=&lt;span style=&quot;color: rgb(86, 156, 214);&quot;&gt; &lt;/span&gt;&lt;span style=&quot;color: rgb(156, 220, 254);&quot;&gt;flip_sign&lt;/span&gt;?&lt;span style=&quot;color: rgb(86, 156, 214);&quot;&gt;change&lt;/span&gt;*-&lt;span style=&quot;color: rgb(181, 206, 168);&quot;&gt;1&lt;/span&gt;:&lt;span style=&quot;color: rgb(86, 156, 214);&quot;&gt;change; &lt;/span&gt;&lt;span style=&quot;color: rgb(215, 186, 125);&quot;&gt;\&lt;/span&gt;&lt;/div&gt;&lt;div&gt;&lt;span style=&quot;color: rgb(86, 156, 214);&quot;&gt;&amp;nbsp; &amp;nbsp; } &lt;/span&gt;&lt;span style=&quot;color: rgb(197, 134, 192);&quot;&gt;while&lt;/span&gt;&lt;span style=&quot;color: rgb(86, 156, 214);&quot;&gt;(&lt;/span&gt;&lt;span style=&quot;color: rgb(181, 206, 168);&quot;&gt;0&lt;/span&gt;&lt;span style=&quot;color: rgb(86, 156, 214);&quot;&gt;); &lt;/span&gt;&lt;/div&gt;&lt;br&gt;&lt;br&gt;&lt;br&gt;&lt;div&gt;&lt;span style=&quot;color: rgb(86, 156, 214);&quot;&gt;void&lt;/span&gt; &lt;span style=&quot;color: rgb(220, 220, 170);&quot;&gt;Add_Movement&lt;/span&gt;()&lt;/div&gt;&lt;div&gt;{&lt;/div&gt;&lt;div&gt;&amp;nbsp; &amp;nbsp; &lt;span style=&quot;color: rgb(86, 156, 214);&quot;&gt;UPDATE_COORDINATES&lt;/span&gt;(&lt;span style=&quot;color: rgb(156, 220, 254);&quot;&gt;displayed_squares&lt;/span&gt;[&lt;span style=&quot;color: rgb(181, 206, 168);&quot;&gt;0&lt;/span&gt;].&lt;span style=&quot;color: rgb(156, 220, 254);&quot;&gt;x&lt;/span&gt;, &lt;span style=&quot;color: rgb(156, 220, 254);&quot;&gt;displayed_squares&lt;/span&gt;[&lt;span style=&quot;color: rgb(181, 206, 168);&quot;&gt;0&lt;/span&gt;].&lt;span style=&quot;color: rgb(156, 220, 254);&quot;&gt;change_of_x&lt;/span&gt;);&lt;/div&gt;&lt;div&gt;&amp;nbsp; &amp;nbsp; &lt;span style=&quot;color: rgb(86, 156, 214);&quot;&gt;UPDATE_COORDINATES&lt;/span&gt;(&lt;span style=&quot;color: rgb(156, 220, 254);&quot;&gt;displayed_squares&lt;/span&gt;[&lt;span style=&quot;color: rgb(181, 206, 168);&quot;&gt;1&lt;/span&gt;].&lt;span style=&quot;color: rgb(156, 220, 254);&quot;&gt;x&lt;/span&gt;, &lt;span style=&quot;color: rgb(156, 220, 254);&quot;&gt;displayed_squares&lt;/span&gt;[&lt;span style=&quot;color: rgb(181, 206, 168);&quot;&gt;1&lt;/span&gt;].&lt;span style=&quot;color: rgb(156, 220, 254);&quot;&gt;change_of_x&lt;/span&gt;);&lt;/div&gt;&lt;div&gt;&amp;nbsp; &amp;nbsp; &lt;span style=&quot;color: rgb(86, 156, 214);&quot;&gt;UPDATE_COORDINATES&lt;/span&gt;(&lt;span style=&quot;color: rgb(156, 220, 254);&quot;&gt;displayed_squares&lt;/span&gt;[&lt;span style=&quot;color: rgb(181, 206, 168);&quot;&gt;2&lt;/span&gt;].&lt;span style=&quot;color: rgb(156, 220, 254);&quot;&gt;x&lt;/span&gt;, &lt;span style=&quot;color: rgb(156, 220, 254);&quot;&gt;displayed_squares&lt;/span&gt;[&lt;span style=&quot;color: rgb(181, 206, 168);&quot;&gt;2&lt;/span&gt;].&lt;span style=&quot;color: rgb(156, 220, 254);&quot;&gt;change_of_x&lt;/span&gt;);&lt;/div&gt;&lt;div&gt;&amp;nbsp; &amp;nbsp; &lt;span style=&quot;color: rgb(86, 156, 214);&quot;&gt;UPDATE_COORDINATES&lt;/span&gt;(&lt;span style=&quot;color: rgb(156, 220, 254);&quot;&gt;displayed_squares&lt;/span&gt;[&lt;span style=&quot;color: rgb(181, 206, 168);&quot;&gt;3&lt;/span&gt;].&lt;span style=&quot;color: rgb(156, 220, 254);&quot;&gt;x&lt;/span&gt;, &lt;span style=&quot;color: rgb(156, 220, 254);&quot;&gt;displayed_squares&lt;/span&gt;[&lt;span style=&quot;color: rgb(181, 206, 168);&quot;&gt;3&lt;/span&gt;].&lt;span style=&quot;color: rgb(156, 220, 254);&quot;&gt;change_of_x&lt;/span&gt;);&lt;/div&gt;&lt;div&gt;&amp;nbsp; &amp;nbsp; &lt;span style=&quot;color: rgb(86, 156, 214);&quot;&gt;UPDATE_COORDINATES&lt;/span&gt;(&lt;span style=&quot;color: rgb(156, 220, 254);&quot;&gt;displayed_squares&lt;/span&gt;[&lt;span style=&quot;color: rgb(181, 206, 168);&quot;&gt;4&lt;/span&gt;].&lt;span style=&quot;color: rgb(156, 220, 254);&quot;&gt;x&lt;/span&gt;, &lt;span style=&quot;color: rgb(156, 220, 254);&quot;&gt;displayed_squares&lt;/span&gt;[&lt;span style=&quot;color: rgb(181, 206, 168);&quot;&gt;4&lt;/span&gt;].&lt;span style=&quot;color: rgb(156, 220, 254);&quot;&gt;change_of_x&lt;/span&gt;);&lt;/div&gt;&lt;div&gt;&amp;nbsp; &amp;nbsp; &lt;span style=&quot;color: rgb(86, 156, 214);&quot;&gt;UPDATE_COORDINATES&lt;/span&gt;(&lt;span style=&quot;color: rgb(156, 220, 254);&quot;&gt;displayed_squares&lt;/span&gt;[&lt;span style=&quot;color: rgb(181, 206, 168);&quot;&gt;5&lt;/span&gt;].&lt;span style=&quot;color: rgb(156, 220, 254);&quot;&gt;x&lt;/span&gt;, &lt;span style=&quot;color: rgb(156, 220, 254);&quot;&gt;displayed_squares&lt;/span&gt;[&lt;span style=&quot;color: rgb(181, 206, 168);&quot;&gt;5&lt;/span&gt;].&lt;span style=&quot;color: rgb(156, 220, 254);&quot;&gt;change_of_x&lt;/span&gt;);&lt;/div&gt;&lt;div&gt;&amp;nbsp; &amp;nbsp; &lt;span style=&quot;color: rgb(86, 156, 214);&quot;&gt;UPDATE_COORDINATES&lt;/span&gt;(&lt;span style=&quot;color: rgb(156, 220, 254);&quot;&gt;displayed_squares&lt;/span&gt;[&lt;span style=&quot;color: rgb(181, 206, 168);&quot;&gt;6&lt;/span&gt;].&lt;span style=&quot;color: rgb(156, 220, 254);&quot;&gt;x&lt;/span&gt;, &lt;span style=&quot;color: rgb(156, 220, 254);&quot;&gt;displayed_squares&lt;/span&gt;[&lt;span style=&quot;color: rgb(181, 206, 168);&quot;&gt;6&lt;/span&gt;].&lt;span style=&quot;color: rgb(156, 220, 254);&quot;&gt;change_of_x&lt;/span&gt;);&lt;/div&gt;&lt;div&gt;&amp;nbsp; &amp;nbsp; &lt;span style=&quot;color: rgb(86, 156, 214);&quot;&gt;UPDATE_COORDINATES&lt;/span&gt;(&lt;span style=&quot;color: rgb(156, 220, 254);&quot;&gt;displayed_squares&lt;/span&gt;[&lt;span style=&quot;color: rgb(181, 206, 168);&quot;&gt;7&lt;/span&gt;].&lt;span style=&quot;color: rgb(156, 220, 254);&quot;&gt;x&lt;/span&gt;, &lt;span style=&quot;color: rgb(156, 220, 254);&quot;&gt;displayed_squares&lt;/span&gt;[&lt;span style=&quot;color: rgb(181, 206, 168);&quot;&gt;7&lt;/span&gt;].&lt;span style=&quot;color: rgb(156, 220, 254);&quot;&gt;change_of_x&lt;/span&gt;);&lt;/div&gt;&lt;div&gt;&amp;nbsp; &amp;nbsp; &lt;span style=&quot;color: rgb(86, 156, 214);&quot;&gt;UPDATE_COORDINATES&lt;/span&gt;(&lt;span style=&quot;color: rgb(156, 220, 254);&quot;&gt;displayed_squares&lt;/span&gt;[&lt;span style=&quot;color: rgb(181, 206, 168);&quot;&gt;8&lt;/span&gt;].&lt;span style=&quot;color: rgb(156, 220, 254);&quot;&gt;x&lt;/span&gt;, &lt;span style=&quot;color: rgb(156, 220, 254);&quot;&gt;displayed_squares&lt;/span&gt;[&lt;span style=&quot;color: rgb(181, 206, 168);&quot;&gt;8&lt;/span&gt;].&lt;span style=&quot;color: rgb(156, 220, 254);&quot;&gt;change_of_x&lt;/span&gt;);&lt;/div&gt;&lt;div&gt;&amp;nbsp; &amp;nbsp; &lt;/div&gt;&lt;div&gt;&amp;nbsp; &amp;nbsp; &lt;span style=&quot;color: rgb(86, 156, 214);&quot;&gt;UPDATE_COORDINATES&lt;/span&gt;(&lt;span style=&quot;color: rgb(156, 220, 254);&quot;&gt;displayed_squares&lt;/span&gt;[&lt;span style=&quot;color: rgb(181, 206, 168);&quot;&gt;0&lt;/span&gt;].&lt;span style=&quot;color: rgb(156, 220, 254);&quot;&gt;y&lt;/span&gt;, &lt;span style=&quot;color: rgb(156, 220, 254);&quot;&gt;displayed_squares&lt;/span&gt;[&lt;span style=&quot;color: rgb(181, 206, 168);&quot;&gt;0&lt;/span&gt;].&lt;span style=&quot;color: rgb(156, 220, 254);&quot;&gt;change_of_y&lt;/span&gt;);&lt;/div&gt;&lt;div&gt;&amp;nbsp; &amp;nbsp; &lt;span style=&quot;color: rgb(86, 156, 214);&quot;&gt;UPDATE_COORDINATES&lt;/span&gt;(&lt;span style=&quot;color: rgb(156, 220, 254);&quot;&gt;displayed_squares&lt;/span&gt;[&lt;span style=&quot;color: rgb(181, 206, 168);&quot;&gt;1&lt;/span&gt;].&lt;span style=&quot;color: rgb(156, 220, 254);&quot;&gt;y&lt;/span&gt;, &lt;span style=&quot;color: rgb(156, 220, 254);&quot;&gt;displayed_squares&lt;/span&gt;[&lt;span style=&quot;color: rgb(181, 206, 168);&quot;&gt;1&lt;/span&gt;].&lt;span style=&quot;color: rgb(156, 220, 254);&quot;&gt;change_of_y&lt;/span&gt;);&lt;/div&gt;&lt;div&gt;&amp;nbsp; &amp;nbsp; &lt;span style=&quot;color: rgb(86, 156, 214);&quot;&gt;UPDATE_COORDINATES&lt;/span&gt;(&lt;span style=&quot;color: rgb(156, 220, 254);&quot;&gt;displayed_squares&lt;/span&gt;[&lt;span style=&quot;color: rgb(181, 206, 168);&quot;&gt;2&lt;/span&gt;].&lt;span style=&quot;color: rgb(156, 220, 254);&quot;&gt;y&lt;/span&gt;, &lt;span style=&quot;color: rgb(156, 220, 254);&quot;&gt;displayed_squares&lt;/span&gt;[&lt;span style=&quot;color: rgb(181, 206, 168);&quot;&gt;2&lt;/span&gt;].&lt;span style=&quot;color: rgb(156, 220, 254);&quot;&gt;change_of_y&lt;/span&gt;);&lt;/div&gt;&lt;div&gt;&amp;nbsp; &amp;nbsp; &lt;span style=&quot;color: rgb(86, 156, 214);&quot;&gt;UPDATE_COORDINATES&lt;/span&gt;(&lt;span style=&quot;color: rgb(156, 220, 254);&quot;&gt;displayed_squares&lt;/span&gt;[&lt;span style=&quot;color: rgb(181, 206, 168);&quot;&gt;3&lt;/span&gt;].&lt;span style=&quot;color: rgb(156, 220, 254);&quot;&gt;y&lt;/span&gt;, &lt;span style=&quot;color: rgb(156, 220, 254);&quot;&gt;displayed_squares&lt;/span&gt;[&lt;span style=&quot;color: rgb(181, 206, 168);&quot;&gt;3&lt;/span&gt;].&lt;span style=&quot;color: rgb(156, 220, 254);&quot;&gt;change_of_y&lt;/span&gt;);&lt;/div&gt;&lt;div&gt;&amp;nbsp; &amp;nbsp; &lt;span style=&quot;color: rgb(86, 156, 214);&quot;&gt;UPDATE_COORDINATES&lt;/span&gt;(&lt;span style=&quot;color: rgb(156, 220, 254);&quot;&gt;displayed_squares&lt;/span&gt;[&lt;span style=&quot;color: rgb(181, 206, 168);&quot;&gt;4&lt;/span&gt;].&lt;span style=&quot;color: rgb(156, 220, 254);&quot;&gt;y&lt;/span&gt;, &lt;span style=&quot;color: rgb(156, 220, 254);&quot;&gt;displayed_squares&lt;/span&gt;[&lt;span style=&quot;color: rgb(181, 206, 168);&quot;&gt;4&lt;/span&gt;].&lt;span style=&quot;color: rgb(156, 220, 254);&quot;&gt;change_of_y&lt;/span&gt;);&lt;/div&gt;&lt;div&gt;&amp;nbsp; &amp;nbsp; &lt;span style=&quot;color: rgb(86, 156, 214);&quot;&gt;UPDATE_COORDINATES&lt;/span&gt;(&lt;span style=&quot;color: rgb(156, 220, 254);&quot;&gt;displayed_squares&lt;/span&gt;[&lt;span style=&quot;color: rgb(181, 206, 168);&quot;&gt;5&lt;/span&gt;].&lt;span style=&quot;color: rgb(156, 220, 254);&quot;&gt;y&lt;/span&gt;, &lt;span style=&quot;color: rgb(156, 220, 254);&quot;&gt;displayed_squares&lt;/span&gt;[&lt;span style=&quot;color: rgb(181, 206, 168);&quot;&gt;5&lt;/span&gt;].&lt;span style=&quot;color: rgb(156, 220, 254);&quot;&gt;change_of_y&lt;/span&gt;);&lt;/div&gt;&lt;div&gt;&amp;nbsp; &amp;nbsp; &lt;span style=&quot;color: rgb(86, 156, 214);&quot;&gt;UPDATE_COORDINATES&lt;/span&gt;(&lt;span style=&quot;color: rgb(156, 220, 254);&quot;&gt;displayed_squares&lt;/span&gt;[&lt;span style=&quot;color: rgb(181, 206, 168);&quot;&gt;6&lt;/span&gt;].&lt;span style=&quot;color: rgb(156, 220, 254);&quot;&gt;y&lt;/span&gt;, &lt;span style=&quot;color: rgb(156, 220, 254);&quot;&gt;displayed_squares&lt;/span&gt;[&lt;span style=&quot;color: rgb(181, 206, 168);&quot;&gt;6&lt;/span&gt;].&lt;span style=&quot;color: rgb(156, 220, 254);&quot;&gt;change_of_y&lt;/span&gt;);&lt;/div&gt;&lt;div&gt;&amp;nbsp; &amp;nbsp; &lt;span style=&quot;color: rgb(86, 156, 214);&quot;&gt;UPDATE_COORDINATES&lt;/span&gt;(&lt;span style=&quot;color: rgb(156, 220, 254);&quot;&gt;displayed_squares&lt;/span&gt;[&lt;span style=&quot;color: rgb(181, 206, 168);&quot;&gt;7&lt;/span&gt;].&lt;span style=&quot;color: rgb(156, 220, 254);&quot;&gt;y&lt;/span&gt;, &lt;span style=&quot;color: rgb(156, 220, 254);&quot;&gt;displayed_squares&lt;/span&gt;[&lt;span style=&quot;color: rgb(181, 206, 168);&quot;&gt;7&lt;/span&gt;].&lt;span style=&quot;color: rgb(156, 220, 254);&quot;&gt;change_of_y&lt;/span&gt;);&lt;/div&gt;&lt;div&gt;&amp;nbsp; &amp;nbsp; &lt;span style=&quot;color: rgb(86, 156, 214);&quot;&gt;UPDATE_COORDINATES&lt;/span&gt;(&lt;span style=&quot;color: rgb(156, 220, 254);&quot;&gt;displayed_squares&lt;/span&gt;[&lt;span style=&quot;color: rgb(181, 206, 168);&quot;&gt;8&lt;/span&gt;].&lt;span style=&quot;color: rgb(156, 220, 254);&quot;&gt;y&lt;/span&gt;, &lt;span style=&quot;color: rgb(156, 220, 254);&quot;&gt;displayed_squares&lt;/span&gt;[&lt;span style=&quot;color: rgb(181, 206, 168);&quot;&gt;8&lt;/span&gt;].&lt;span style=&quot;color: rgb(156, 220, 254);&quot;&gt;change_of_y&lt;/span&gt;);&lt;/div&gt;&lt;div&gt;}&lt;/div&gt;&lt;/div&gt;&lt;/div&gt;&lt;div&gt;&lt;br&gt;&lt;/div&gt;&lt;/div&gt;&lt;/div&gt;&lt;/div&gt;&lt;/div&gt;&lt;/div&gt;&lt;/div&gt;&lt;/div&gt;&lt;/div&gt;" style="text;html=1;whiteSpace=wrap;overflow=hidden;rounded=0;" vertex="1" parent="1">
          <mxGeometry x="2880" y="-950" width="630" height="3360" as="geometry" />
        </mxCell>
        <mxCell id="LFHnz0v82tFLA9lAuQO0-3" value="&lt;h1 style=&quot;margin-top: 0px;&quot;&gt;Execute_repeat_sequence_state&lt;/h1&gt;&lt;div&gt;In this state the player shall repeat the sequence displayed. While implementing the game every functionality was implemented in its own function. Now I did a function unrolling to safe the jump statements.&amp;nbsp;&lt;/div&gt;&lt;div style=&quot;color: rgb(212, 212, 212); background-color: rgb(30, 30, 30); font-family: Consolas, &amp;quot;Courier New&amp;quot;, monospace; font-size: 14px; line-height: 19px; white-space: pre;&quot;&gt;&lt;div&gt;&lt;span style=&quot;color: rgb(86, 156, 214);&quot;&gt;void&lt;/span&gt; &lt;span style=&quot;color: rgb(220, 220, 170);&quot;&gt;execute_repeat_sequence_state&lt;/span&gt;(&lt;span style=&quot;color: rgb(86, 156, 214);&quot;&gt;void&lt;/span&gt;){&lt;/div&gt;&lt;div&gt;&lt;span style=&quot;color: rgb(106, 153, 85);&quot;&gt;&amp;nbsp; &amp;nbsp; /*************************************/&lt;/span&gt;&lt;/div&gt;&lt;div&gt;&amp;nbsp; &amp;nbsp; &lt;span style=&quot;color: rgb(106, 153, 85);&quot;&gt;//Display_Gamefield();&lt;/span&gt;&lt;/div&gt;&lt;div&gt;&amp;nbsp; &amp;nbsp; &lt;span style=&quot;color: rgb(220, 220, 170);&quot;&gt;Reset0Ref&lt;/span&gt;();&lt;/div&gt;&lt;div&gt;&amp;nbsp; &amp;nbsp; dp_VIA_t1_cnt_lo = &lt;span style=&quot;color: rgb(181, 206, 168);&quot;&gt;0x40&lt;/span&gt;;&lt;/div&gt;&lt;div&gt;&amp;nbsp; &amp;nbsp; &lt;span style=&quot;color: rgb(220, 220, 170);&quot;&gt;Moveto_d&lt;/span&gt;(&lt;span style=&quot;color: rgb(181, 206, 168);&quot;&gt;90&lt;/span&gt;, -&lt;span style=&quot;color: rgb(181, 206, 168);&quot;&gt;120&lt;/span&gt;);&lt;/div&gt;&lt;div&gt;&amp;nbsp; &amp;nbsp; dp_VIA_t1_cnt_lo = &lt;span style=&quot;color: rgb(181, 206, 168);&quot;&gt;0x80&lt;/span&gt;;&lt;/div&gt;&lt;div&gt;&amp;nbsp; &amp;nbsp; &lt;span style=&quot;color: rgb(220, 220, 170);&quot;&gt;Draw_VLp&lt;/span&gt;(&amp;amp;&lt;span style=&quot;color: rgb(156, 220, 254);&quot;&gt;Gamefield&lt;/span&gt;);&lt;/div&gt;&lt;div&gt;&amp;nbsp; &amp;nbsp; &lt;span style=&quot;color: rgb(220, 220, 170);&quot;&gt;Reset0Ref&lt;/span&gt;();&lt;/div&gt;&lt;div&gt;&amp;nbsp; &amp;nbsp; dp_VIA_t1_cnt_lo = &lt;span style=&quot;color: rgb(181, 206, 168);&quot;&gt;0x18&lt;/span&gt;;&lt;/div&gt;&lt;div&gt;&amp;nbsp; &amp;nbsp; &lt;span style=&quot;color: rgb(220, 220, 170);&quot;&gt;Moveto_d&lt;/span&gt;(&lt;span style=&quot;color: rgb(181, 206, 168);&quot;&gt;80&lt;/span&gt;, &lt;span style=&quot;color: rgb(181, 206, 168);&quot;&gt;0&lt;/span&gt;);&lt;/div&gt;&lt;div&gt;&amp;nbsp; &amp;nbsp; &lt;span style=&quot;color: rgb(220, 220, 170);&quot;&gt;Draw_VLp&lt;/span&gt;(&amp;amp;&lt;span style=&quot;color: rgb(156, 220, 254);&quot;&gt;Brainright&lt;/span&gt;);&lt;/div&gt;&lt;div&gt;&amp;nbsp; &amp;nbsp; &lt;span style=&quot;color: rgb(220, 220, 170);&quot;&gt;Reset0Ref&lt;/span&gt;();&lt;/div&gt;&lt;div&gt;&amp;nbsp; &amp;nbsp; &lt;span style=&quot;color: rgb(220, 220, 170);&quot;&gt;Moveto_d&lt;/span&gt;(&lt;span style=&quot;color: rgb(181, 206, 168);&quot;&gt;80&lt;/span&gt;, &lt;span style=&quot;color: rgb(181, 206, 168);&quot;&gt;0&lt;/span&gt;);&lt;/div&gt;&lt;div&gt;&amp;nbsp; &amp;nbsp; &lt;span style=&quot;color: rgb(220, 220, 170);&quot;&gt;Draw_VLp&lt;/span&gt;(&amp;amp;&lt;span style=&quot;color: rgb(156, 220, 254);&quot;&gt;Brainleft&lt;/span&gt;);&lt;/div&gt;&lt;div&gt;&lt;span style=&quot;color: rgb(106, 153, 85);&quot;&gt;&amp;nbsp; &amp;nbsp; /*************************************/&lt;/span&gt;&lt;/div&gt;&lt;br&gt;&lt;div&gt;&lt;span style=&quot;color: rgb(106, 153, 85);&quot;&gt;&amp;nbsp; &amp;nbsp; /*************************************/&lt;/span&gt;&lt;/div&gt;&lt;div&gt;&amp;nbsp; &amp;nbsp; &lt;span style=&quot;color: rgb(106, 153, 85);&quot;&gt;//execute_player_action();&lt;/span&gt;&lt;/div&gt;&lt;div&gt;&amp;nbsp; &amp;nbsp; &lt;span style=&quot;color: rgb(156, 220, 254);&quot;&gt;displayed_squares&lt;/span&gt;[&lt;span style=&quot;color: rgb(181, 206, 168);&quot;&gt;0&lt;/span&gt;].&lt;span style=&quot;color: rgb(156, 220, 254);&quot;&gt;execute_display_functions&lt;/span&gt;(&lt;span style=&quot;color: rgb(181, 206, 168);&quot;&gt;0&lt;/span&gt;);&lt;/div&gt;&lt;div&gt;&amp;nbsp; &amp;nbsp; &lt;span style=&quot;color: rgb(156, 220, 254);&quot;&gt;displayed_squares&lt;/span&gt;[&lt;span style=&quot;color: rgb(181, 206, 168);&quot;&gt;1&lt;/span&gt;].&lt;span style=&quot;color: rgb(156, 220, 254);&quot;&gt;execute_display_functions&lt;/span&gt;(&lt;span style=&quot;color: rgb(181, 206, 168);&quot;&gt;1&lt;/span&gt;);&lt;/div&gt;&lt;div&gt;&amp;nbsp; &amp;nbsp; &lt;span style=&quot;color: rgb(156, 220, 254);&quot;&gt;displayed_squares&lt;/span&gt;[&lt;span style=&quot;color: rgb(181, 206, 168);&quot;&gt;2&lt;/span&gt;].&lt;span style=&quot;color: rgb(156, 220, 254);&quot;&gt;execute_display_functions&lt;/span&gt;(&lt;span style=&quot;color: rgb(181, 206, 168);&quot;&gt;2&lt;/span&gt;);&lt;/div&gt;&lt;div&gt;&amp;nbsp; &amp;nbsp; &lt;span style=&quot;color: rgb(156, 220, 254);&quot;&gt;displayed_squares&lt;/span&gt;[&lt;span style=&quot;color: rgb(181, 206, 168);&quot;&gt;3&lt;/span&gt;].&lt;span style=&quot;color: rgb(156, 220, 254);&quot;&gt;execute_display_functions&lt;/span&gt;(&lt;span style=&quot;color: rgb(181, 206, 168);&quot;&gt;3&lt;/span&gt;);&lt;/div&gt;&lt;div&gt;&amp;nbsp; &amp;nbsp; &lt;span style=&quot;color: rgb(156, 220, 254);&quot;&gt;displayed_squares&lt;/span&gt;[&lt;span style=&quot;color: rgb(181, 206, 168);&quot;&gt;4&lt;/span&gt;].&lt;span style=&quot;color: rgb(156, 220, 254);&quot;&gt;execute_display_functions&lt;/span&gt;(&lt;span style=&quot;color: rgb(181, 206, 168);&quot;&gt;4&lt;/span&gt;);&lt;/div&gt;&lt;div&gt;&amp;nbsp; &amp;nbsp; &lt;span style=&quot;color: rgb(156, 220, 254);&quot;&gt;displayed_squares&lt;/span&gt;[&lt;span style=&quot;color: rgb(181, 206, 168);&quot;&gt;5&lt;/span&gt;].&lt;span style=&quot;color: rgb(156, 220, 254);&quot;&gt;execute_display_functions&lt;/span&gt;(&lt;span style=&quot;color: rgb(181, 206, 168);&quot;&gt;5&lt;/span&gt;);&lt;/div&gt;&lt;div&gt;&amp;nbsp; &amp;nbsp; &lt;span style=&quot;color: rgb(156, 220, 254);&quot;&gt;displayed_squares&lt;/span&gt;[&lt;span style=&quot;color: rgb(181, 206, 168);&quot;&gt;6&lt;/span&gt;].&lt;span style=&quot;color: rgb(156, 220, 254);&quot;&gt;execute_display_functions&lt;/span&gt;(&lt;span style=&quot;color: rgb(181, 206, 168);&quot;&gt;6&lt;/span&gt;);&lt;/div&gt;&lt;div&gt;&amp;nbsp; &amp;nbsp; &lt;span style=&quot;color: rgb(156, 220, 254);&quot;&gt;displayed_squares&lt;/span&gt;[&lt;span style=&quot;color: rgb(181, 206, 168);&quot;&gt;7&lt;/span&gt;].&lt;span style=&quot;color: rgb(156, 220, 254);&quot;&gt;execute_display_functions&lt;/span&gt;(&lt;span style=&quot;color: rgb(181, 206, 168);&quot;&gt;7&lt;/span&gt;);&lt;/div&gt;&lt;div&gt;&amp;nbsp; &amp;nbsp; &lt;span style=&quot;color: rgb(156, 220, 254);&quot;&gt;displayed_squares&lt;/span&gt;[&lt;span style=&quot;color: rgb(181, 206, 168);&quot;&gt;8&lt;/span&gt;].&lt;span style=&quot;color: rgb(156, 220, 254);&quot;&gt;execute_display_functions&lt;/span&gt;(&lt;span style=&quot;color: rgb(181, 206, 168);&quot;&gt;8&lt;/span&gt;);&lt;/div&gt;&lt;div&gt;&lt;span style=&quot;color: rgb(106, 153, 85);&quot;&gt;&amp;nbsp; &amp;nbsp; /*************************************/&lt;/span&gt;&lt;/div&gt;&lt;br&gt;&lt;div&gt;&amp;nbsp; &amp;nbsp; &lt;span style=&quot;color: rgb(106, 153, 85);&quot;&gt;//This is a function ptr and therefore to dynamic to be exchange(for now)&lt;/span&gt;&lt;/div&gt;&lt;div&gt;&amp;nbsp; &amp;nbsp; &lt;span style=&quot;color: rgb(156, 220, 254);&quot;&gt;level_specific_action&lt;/span&gt;();&lt;/div&gt;&lt;br&gt;&lt;div&gt;&lt;span style=&quot;color: rgb(106, 153, 85);&quot;&gt;&amp;nbsp; &amp;nbsp; /*************************************/&lt;/span&gt;&lt;/div&gt;&lt;div&gt;&amp;nbsp; &amp;nbsp; &lt;span style=&quot;color: rgb(106, 153, 85);&quot;&gt;//move_player();&lt;/span&gt;&lt;/div&gt;&lt;div&gt;&amp;nbsp; &amp;nbsp; &lt;span style=&quot;color: rgb(220, 220, 170);&quot;&gt;check_joysticks&lt;/span&gt;();&lt;/div&gt;&lt;br&gt;&lt;div&gt;&amp;nbsp; &amp;nbsp; &lt;span style=&quot;color: rgb(156, 220, 254);&quot;&gt;joy_x&lt;/span&gt; = &lt;span style=&quot;color: rgb(220, 220, 170);&quot;&gt;joystick_1_x&lt;/span&gt;();&lt;/div&gt;&lt;div&gt;&amp;nbsp; &amp;nbsp; &lt;span style=&quot;color: rgb(156, 220, 254);&quot;&gt;joy_y&lt;/span&gt; = &lt;span style=&quot;color: rgb(220, 220, 170);&quot;&gt;joystick_1_y&lt;/span&gt;();&lt;/div&gt;&lt;br&gt;&lt;div&gt;&amp;nbsp; &amp;nbsp; (&lt;span style=&quot;color: rgb(156, 220, 254);&quot;&gt;joy_x&lt;/span&gt; &amp;lt; &lt;span style=&quot;color: rgb(181, 206, 168);&quot;&gt;0&lt;/span&gt; &amp;amp;&amp;amp; &lt;span style=&quot;color: rgb(156, 220, 254);&quot;&gt;joy_y&lt;/span&gt; &amp;gt; &lt;span style=&quot;color: rgb(181, 206, 168);&quot;&gt;0&lt;/span&gt;) ? (&lt;span style=&quot;color: rgb(156, 220, 254);&quot;&gt;displayed_squares&lt;/span&gt;[&lt;span style=&quot;color: rgb(181, 206, 168);&quot;&gt;0&lt;/span&gt;].&lt;span style=&quot;color: rgb(156, 220, 254);&quot;&gt;execute_display_functions&lt;/span&gt; = &amp;amp;&lt;span style=&quot;color: rgb(220, 220, 170);&quot;&gt;draw_square_filled&lt;/span&gt;;) : (&lt;span style=&quot;color: rgb(156, 220, 254);&quot;&gt;displayed_squares&lt;/span&gt;[&lt;span style=&quot;color: rgb(181, 206, 168);&quot;&gt;0&lt;/span&gt;].&lt;span style=&quot;color: rgb(156, 220, 254);&quot;&gt;execute_display_functions&lt;/span&gt; = &amp;amp;draw_square);&lt;/div&gt;&lt;div&gt;&amp;nbsp; &amp;nbsp; (&lt;span style=&quot;color: rgb(156, 220, 254);&quot;&gt;joy_x&lt;/span&gt; == &lt;span style=&quot;color: rgb(181, 206, 168);&quot;&gt;0&lt;/span&gt; &amp;amp;&amp;amp; &lt;span style=&quot;color: rgb(156, 220, 254);&quot;&gt;joy_y&lt;/span&gt; &amp;gt; &lt;span style=&quot;color: rgb(181, 206, 168);&quot;&gt;0&lt;/span&gt;)? (&lt;span style=&quot;color: rgb(156, 220, 254);&quot;&gt;displayed_squares&lt;/span&gt;[&lt;span style=&quot;color: rgb(181, 206, 168);&quot;&gt;1&lt;/span&gt;].&lt;span style=&quot;color: rgb(156, 220, 254);&quot;&gt;execute_display_functions&lt;/span&gt; = &amp;amp;&lt;span style=&quot;color: rgb(220, 220, 170);&quot;&gt;draw_square_filled&lt;/span&gt;;) : (&lt;span style=&quot;color: rgb(156, 220, 254);&quot;&gt;displayed_squares&lt;/span&gt;[&lt;span style=&quot;color: rgb(181, 206, 168);&quot;&gt;1&lt;/span&gt;].&lt;span style=&quot;color: rgb(156, 220, 254);&quot;&gt;execute_display_functions&lt;/span&gt; = &amp;amp;draw_square);&lt;/div&gt;&lt;div&gt;&amp;nbsp; &amp;nbsp; (&lt;span style=&quot;color: rgb(156, 220, 254);&quot;&gt;joy_x&lt;/span&gt; &amp;gt; &lt;span style=&quot;color: rgb(181, 206, 168);&quot;&gt;0&lt;/span&gt; &amp;amp;&amp;amp; &lt;span style=&quot;color: rgb(156, 220, 254);&quot;&gt;joy_y&lt;/span&gt; &amp;gt; &lt;span style=&quot;color: rgb(181, 206, 168);&quot;&gt;0&lt;/span&gt;)? (&lt;span style=&quot;color: rgb(156, 220, 254);&quot;&gt;displayed_squares&lt;/span&gt;[&lt;span style=&quot;color: rgb(181, 206, 168);&quot;&gt;2&lt;/span&gt;].&lt;span style=&quot;color: rgb(156, 220, 254);&quot;&gt;execute_display_functions&lt;/span&gt; = &amp;amp;&lt;span style=&quot;color: rgb(220, 220, 170);&quot;&gt;draw_square_filled&lt;/span&gt;) : (&lt;span style=&quot;color: rgb(156, 220, 254);&quot;&gt;displayed_squares&lt;/span&gt;[&lt;span style=&quot;color: rgb(181, 206, 168);&quot;&gt;2&lt;/span&gt;].&lt;span style=&quot;color: rgb(156, 220, 254);&quot;&gt;execute_display_functions&lt;/span&gt; = &amp;amp;&lt;span style=&quot;color: rgb(220, 220, 170);&quot;&gt;draw_square&lt;/span&gt;);&lt;/div&gt;&lt;div&gt;&amp;nbsp; &amp;nbsp; (&lt;span style=&quot;color: rgb(156, 220, 254);&quot;&gt;joy_x&lt;/span&gt; &amp;lt; &lt;span style=&quot;color: rgb(181, 206, 168);&quot;&gt;0&lt;/span&gt; &amp;amp;&amp;amp; &lt;span style=&quot;color: rgb(156, 220, 254);&quot;&gt;joy_y&lt;/span&gt; == &lt;span style=&quot;color: rgb(181, 206, 168);&quot;&gt;0&lt;/span&gt;)? (&lt;span style=&quot;color: rgb(156, 220, 254);&quot;&gt;displayed_squares&lt;/span&gt;[&lt;span style=&quot;color: rgb(181, 206, 168);&quot;&gt;3&lt;/span&gt;].&lt;span style=&quot;color: rgb(156, 220, 254);&quot;&gt;execute_display_functions&lt;/span&gt; = &amp;amp;&lt;span style=&quot;color: rgb(220, 220, 170);&quot;&gt;draw_square_filled&lt;/span&gt;) : (&lt;span style=&quot;color: rgb(156, 220, 254);&quot;&gt;displayed_squares&lt;/span&gt;[&lt;span style=&quot;color: rgb(181, 206, 168);&quot;&gt;3&lt;/span&gt;].&lt;span style=&quot;color: rgb(156, 220, 254);&quot;&gt;execute_display_functions&lt;/span&gt; = &amp;amp;&lt;span style=&quot;color: rgb(220, 220, 170);&quot;&gt;draw_square&lt;/span&gt;);&lt;/div&gt;&lt;div&gt;&amp;nbsp; &amp;nbsp; (&lt;span style=&quot;color: rgb(156, 220, 254);&quot;&gt;joy_x&lt;/span&gt; == &lt;span style=&quot;color: rgb(181, 206, 168);&quot;&gt;0&lt;/span&gt; &amp;amp;&amp;amp; &lt;span style=&quot;color: rgb(156, 220, 254);&quot;&gt;joy_y&lt;/span&gt; == &lt;span style=&quot;color: rgb(181, 206, 168);&quot;&gt;0&lt;/span&gt;)? (&lt;span style=&quot;color: rgb(156, 220, 254);&quot;&gt;displayed_squares&lt;/span&gt;[&lt;span style=&quot;color: rgb(181, 206, 168);&quot;&gt;4&lt;/span&gt;].&lt;span style=&quot;color: rgb(156, 220, 254);&quot;&gt;execute_display_functions&lt;/span&gt; = &amp;amp;&lt;span style=&quot;color: rgb(220, 220, 170);&quot;&gt;draw_square_filled&lt;/span&gt;) : (&lt;span style=&quot;color: rgb(156, 220, 254);&quot;&gt;displayed_squares&lt;/span&gt;[&lt;span style=&quot;color: rgb(181, 206, 168);&quot;&gt;4&lt;/span&gt;].&lt;span style=&quot;color: rgb(156, 220, 254);&quot;&gt;execute_display_functions&lt;/span&gt; = &amp;amp;&lt;span style=&quot;color: rgb(220, 220, 170);&quot;&gt;draw_square&lt;/span&gt;);&lt;/div&gt;&lt;div&gt;&amp;nbsp; &amp;nbsp; (&lt;span style=&quot;color: rgb(156, 220, 254);&quot;&gt;joy_x&lt;/span&gt; &amp;gt; &lt;span style=&quot;color: rgb(181, 206, 168);&quot;&gt;0&lt;/span&gt; &amp;amp;&amp;amp; &lt;span style=&quot;color: rgb(156, 220, 254);&quot;&gt;joy_y&lt;/span&gt; == &lt;span style=&quot;color: rgb(181, 206, 168);&quot;&gt;0&lt;/span&gt;)? (&lt;span style=&quot;color: rgb(156, 220, 254);&quot;&gt;displayed_squares&lt;/span&gt;[&lt;span style=&quot;color: rgb(181, 206, 168);&quot;&gt;5&lt;/span&gt;].&lt;span style=&quot;color: rgb(156, 220, 254);&quot;&gt;execute_display_functions&lt;/span&gt; = &amp;amp;&lt;span style=&quot;color: rgb(220, 220, 170);&quot;&gt;draw_square_filled&lt;/span&gt;) : (&lt;span style=&quot;color: rgb(156, 220, 254);&quot;&gt;displayed_squares&lt;/span&gt;[&lt;span style=&quot;color: rgb(181, 206, 168);&quot;&gt;5&lt;/span&gt;].&lt;span style=&quot;color: rgb(156, 220, 254);&quot;&gt;execute_display_functions&lt;/span&gt; = &amp;amp;&lt;span style=&quot;color: rgb(220, 220, 170);&quot;&gt;draw_square&lt;/span&gt;);&lt;/div&gt;&lt;div&gt;&amp;nbsp; &amp;nbsp; (&lt;span style=&quot;color: rgb(156, 220, 254);&quot;&gt;joy_x&lt;/span&gt; &amp;lt; &lt;span style=&quot;color: rgb(181, 206, 168);&quot;&gt;0&lt;/span&gt; &amp;amp;&amp;amp; &lt;span style=&quot;color: rgb(156, 220, 254);&quot;&gt;joy_y&lt;/span&gt; &amp;lt; &lt;span style=&quot;color: rgb(181, 206, 168);&quot;&gt;0&lt;/span&gt;)? (&lt;span style=&quot;color: rgb(156, 220, 254);&quot;&gt;displayed_squares&lt;/span&gt;[&lt;span style=&quot;color: rgb(181, 206, 168);&quot;&gt;6&lt;/span&gt;].&lt;span style=&quot;color: rgb(156, 220, 254);&quot;&gt;execute_display_functions&lt;/span&gt; = &amp;amp;&lt;span style=&quot;color: rgb(220, 220, 170);&quot;&gt;draw_square_filled&lt;/span&gt;) : (&lt;span style=&quot;color: rgb(156, 220, 254);&quot;&gt;displayed_squares&lt;/span&gt;[&lt;span style=&quot;color: rgb(181, 206, 168);&quot;&gt;6&lt;/span&gt;].&lt;span style=&quot;color: rgb(156, 220, 254);&quot;&gt;execute_display_functions&lt;/span&gt; = &amp;amp;&lt;span style=&quot;color: rgb(220, 220, 170);&quot;&gt;draw_square&lt;/span&gt;);&lt;/div&gt;&lt;div&gt;&amp;nbsp; &amp;nbsp; (&lt;span style=&quot;color: rgb(156, 220, 254);&quot;&gt;joy_x&lt;/span&gt; == &lt;span style=&quot;color: rgb(181, 206, 168);&quot;&gt;0&lt;/span&gt; &amp;amp;&amp;amp; &lt;span style=&quot;color: rgb(156, 220, 254);&quot;&gt;joy_y&lt;/span&gt; &amp;lt; &lt;span style=&quot;color: rgb(181, 206, 168);&quot;&gt;0&lt;/span&gt;)? (&lt;span style=&quot;color: rgb(156, 220, 254);&quot;&gt;displayed_squares&lt;/span&gt;[&lt;span style=&quot;color: rgb(181, 206, 168);&quot;&gt;7&lt;/span&gt;].&lt;span style=&quot;color: rgb(156, 220, 254);&quot;&gt;execute_display_functions&lt;/span&gt; = &amp;amp;&lt;span style=&quot;color: rgb(220, 220, 170);&quot;&gt;draw_square_filled&lt;/span&gt;) : (&lt;span style=&quot;color: rgb(156, 220, 254);&quot;&gt;displayed_squares&lt;/span&gt;[&lt;span style=&quot;color: rgb(181, 206, 168);&quot;&gt;7&lt;/span&gt;].&lt;span style=&quot;color: rgb(156, 220, 254);&quot;&gt;execute_display_functions&lt;/span&gt; = &amp;amp;&lt;span style=&quot;color: rgb(220, 220, 170);&quot;&gt;draw_square&lt;/span&gt;);&lt;/div&gt;&lt;div&gt;&amp;nbsp; &amp;nbsp; (&lt;span style=&quot;color: rgb(156, 220, 254);&quot;&gt;joy_x&lt;/span&gt; &amp;gt; &lt;span style=&quot;color: rgb(181, 206, 168);&quot;&gt;0&lt;/span&gt; &amp;amp;&amp;amp; &lt;span style=&quot;color: rgb(156, 220, 254);&quot;&gt;joy_y&lt;/span&gt; &amp;lt; &lt;span style=&quot;color: rgb(181, 206, 168);&quot;&gt;0&lt;/span&gt;)? (&lt;span style=&quot;color: rgb(156, 220, 254);&quot;&gt;displayed_squares&lt;/span&gt;[&lt;span style=&quot;color: rgb(181, 206, 168);&quot;&gt;8&lt;/span&gt;].&lt;span style=&quot;color: rgb(156, 220, 254);&quot;&gt;execute_display_functions&lt;/span&gt; = &amp;amp;&lt;span style=&quot;color: rgb(220, 220, 170);&quot;&gt;draw_square_filled&lt;/span&gt;) : (&lt;span style=&quot;color: rgb(156, 220, 254);&quot;&gt;displayed_squares&lt;/span&gt;[&lt;span style=&quot;color: rgb(181, 206, 168);&quot;&gt;8&lt;/span&gt;].&lt;span style=&quot;color: rgb(156, 220, 254);&quot;&gt;execute_display_functions&lt;/span&gt; = &amp;amp;&lt;span style=&quot;color: rgb(220, 220, 170);&quot;&gt;draw_square&lt;/span&gt;);&lt;/div&gt;&lt;div&gt;&lt;span style=&quot;color: rgb(106, 153, 85);&quot;&gt;&amp;nbsp; &amp;nbsp; /*************************************/&lt;/span&gt;&lt;/div&gt;&lt;br&gt;&lt;div&gt;&lt;span style=&quot;color: rgb(106, 153, 85);&quot;&gt;&amp;nbsp; &amp;nbsp; /*************************************/&lt;/span&gt;&lt;/div&gt;&lt;div&gt;&amp;nbsp; &amp;nbsp; &lt;span style=&quot;color: rgb(106, 153, 85);&quot;&gt;//read_player_input();&lt;/span&gt;&lt;/div&gt;&lt;br&gt;&lt;div&gt;&amp;nbsp; &amp;nbsp; &lt;span style=&quot;color: rgb(220, 220, 170);&quot;&gt;Read_Btns&lt;/span&gt;();&lt;/div&gt;&lt;div&gt;&amp;nbsp; &amp;nbsp; (&lt;span style=&quot;color: rgb(156, 220, 254);&quot;&gt;joy_x&lt;/span&gt; &amp;lt; &lt;span style=&quot;color: rgb(181, 206, 168);&quot;&gt;0&lt;/span&gt; &amp;amp;&amp;amp; &lt;span style=&quot;color: rgb(156, 220, 254);&quot;&gt;joy_y&lt;/span&gt; &amp;gt; &lt;span style=&quot;color: rgb(181, 206, 168);&quot;&gt;0&lt;/span&gt;) ? (&lt;span style=&quot;color: rgb(156, 220, 254);&quot;&gt;temp_pass&lt;/span&gt; = &lt;span style=&quot;color: rgb(181, 206, 168);&quot;&gt;0&lt;/span&gt;) : (&lt;span style=&quot;color: rgb(156, 220, 254);&quot;&gt;temp_pass&lt;/span&gt; = &lt;span style=&quot;color: rgb(156, 220, 254);&quot;&gt;temp_pass&lt;/span&gt;);&lt;/div&gt;&lt;div&gt;&amp;nbsp; &amp;nbsp; (&lt;span style=&quot;color: rgb(156, 220, 254);&quot;&gt;joy_x&lt;/span&gt; == &lt;span style=&quot;color: rgb(181, 206, 168);&quot;&gt;0&lt;/span&gt; &amp;amp;&amp;amp; &lt;span style=&quot;color: rgb(156, 220, 254);&quot;&gt;joy_y&lt;/span&gt; &amp;gt; &lt;span style=&quot;color: rgb(181, 206, 168);&quot;&gt;0&lt;/span&gt;)? (&lt;span style=&quot;color: rgb(156, 220, 254);&quot;&gt;temp_pass&lt;/span&gt; = &lt;span style=&quot;color: rgb(181, 206, 168);&quot;&gt;1&lt;/span&gt;) : (&lt;span style=&quot;color: rgb(156, 220, 254);&quot;&gt;temp_pass&lt;/span&gt; = &lt;span style=&quot;color: rgb(156, 220, 254);&quot;&gt;temp_pass&lt;/span&gt;);&lt;/div&gt;&lt;div&gt;&amp;nbsp; &amp;nbsp; (&lt;span style=&quot;color: rgb(156, 220, 254);&quot;&gt;joy_x&lt;/span&gt; &amp;gt; &lt;span style=&quot;color: rgb(181, 206, 168);&quot;&gt;0&lt;/span&gt; &amp;amp;&amp;amp; &lt;span style=&quot;color: rgb(156, 220, 254);&quot;&gt;joy_y&lt;/span&gt; &amp;gt; &lt;span style=&quot;color: rgb(181, 206, 168);&quot;&gt;0&lt;/span&gt;)? &amp;nbsp;(&lt;span style=&quot;color: rgb(156, 220, 254);&quot;&gt;temp_pass&lt;/span&gt; = &lt;span style=&quot;color: rgb(181, 206, 168);&quot;&gt;2&lt;/span&gt;) : (&lt;span style=&quot;color: rgb(156, 220, 254);&quot;&gt;temp_pass&lt;/span&gt; = &lt;span style=&quot;color: rgb(156, 220, 254);&quot;&gt;temp_pass&lt;/span&gt;);&lt;/div&gt;&lt;div&gt;&amp;nbsp; &amp;nbsp; (&lt;span style=&quot;color: rgb(156, 220, 254);&quot;&gt;joy_x&lt;/span&gt; &amp;lt; &lt;span style=&quot;color: rgb(181, 206, 168);&quot;&gt;0&lt;/span&gt; &amp;amp;&amp;amp; &lt;span style=&quot;color: rgb(156, 220, 254);&quot;&gt;joy_y&lt;/span&gt; == &lt;span style=&quot;color: rgb(181, 206, 168);&quot;&gt;0&lt;/span&gt;)? (&lt;span style=&quot;color: rgb(156, 220, 254);&quot;&gt;temp_pass&lt;/span&gt; = &lt;span style=&quot;color: rgb(181, 206, 168);&quot;&gt;3&lt;/span&gt;): (&lt;span style=&quot;color: rgb(156, 220, 254);&quot;&gt;temp_pass&lt;/span&gt; = &lt;span style=&quot;color: rgb(156, 220, 254);&quot;&gt;temp_pass&lt;/span&gt;);&lt;/div&gt;&lt;div&gt;&amp;nbsp; &amp;nbsp; (&lt;span style=&quot;color: rgb(156, 220, 254);&quot;&gt;joy_x&lt;/span&gt; == &lt;span style=&quot;color: rgb(181, 206, 168);&quot;&gt;0&lt;/span&gt; &amp;amp;&amp;amp; &lt;span style=&quot;color: rgb(156, 220, 254);&quot;&gt;joy_y&lt;/span&gt; == &lt;span style=&quot;color: rgb(181, 206, 168);&quot;&gt;0&lt;/span&gt;)?(&lt;span style=&quot;color: rgb(156, 220, 254);&quot;&gt;temp_pass&lt;/span&gt; = &lt;span style=&quot;color: rgb(181, 206, 168);&quot;&gt;4&lt;/span&gt;): (&lt;span style=&quot;color: rgb(156, 220, 254);&quot;&gt;temp_pass&lt;/span&gt; = &lt;span style=&quot;color: rgb(156, 220, 254);&quot;&gt;temp_pass&lt;/span&gt;);&lt;/div&gt;&lt;div&gt;&amp;nbsp; &amp;nbsp; (&lt;span style=&quot;color: rgb(156, 220, 254);&quot;&gt;joy_x&lt;/span&gt; &amp;gt; &lt;span style=&quot;color: rgb(181, 206, 168);&quot;&gt;0&lt;/span&gt; &amp;amp;&amp;amp; &lt;span style=&quot;color: rgb(156, 220, 254);&quot;&gt;joy_y&lt;/span&gt; == &lt;span style=&quot;color: rgb(181, 206, 168);&quot;&gt;0&lt;/span&gt;)?(&lt;span style=&quot;color: rgb(156, 220, 254);&quot;&gt;temp_pass&lt;/span&gt; = &lt;span style=&quot;color: rgb(181, 206, 168);&quot;&gt;5&lt;/span&gt;): (&lt;span style=&quot;color: rgb(156, 220, 254);&quot;&gt;temp_pass&lt;/span&gt; = &lt;span style=&quot;color: rgb(156, 220, 254);&quot;&gt;temp_pass&lt;/span&gt;);&lt;/div&gt;&lt;div&gt;&amp;nbsp; &amp;nbsp; (&lt;span style=&quot;color: rgb(156, 220, 254);&quot;&gt;joy_x&lt;/span&gt; &amp;lt; &lt;span style=&quot;color: rgb(181, 206, 168);&quot;&gt;0&lt;/span&gt; &amp;amp;&amp;amp; &lt;span style=&quot;color: rgb(156, 220, 254);&quot;&gt;joy_y&lt;/span&gt; &amp;lt; &lt;span style=&quot;color: rgb(181, 206, 168);&quot;&gt;0&lt;/span&gt;)? (&lt;span style=&quot;color: rgb(156, 220, 254);&quot;&gt;temp_pass&lt;/span&gt; = &lt;span style=&quot;color: rgb(181, 206, 168);&quot;&gt;6&lt;/span&gt;): (&lt;span style=&quot;color: rgb(156, 220, 254);&quot;&gt;temp_pass&lt;/span&gt; = &lt;span style=&quot;color: rgb(156, 220, 254);&quot;&gt;temp_pass&lt;/span&gt;);&lt;/div&gt;&lt;div&gt;&amp;nbsp; &amp;nbsp; (&lt;span style=&quot;color: rgb(156, 220, 254);&quot;&gt;joy_x&lt;/span&gt; == &lt;span style=&quot;color: rgb(181, 206, 168);&quot;&gt;0&lt;/span&gt; &amp;amp;&amp;amp; &lt;span style=&quot;color: rgb(156, 220, 254);&quot;&gt;joy_y&lt;/span&gt; &amp;lt; &lt;span style=&quot;color: rgb(181, 206, 168);&quot;&gt;0&lt;/span&gt;)?(&lt;span style=&quot;color: rgb(156, 220, 254);&quot;&gt;temp_pass&lt;/span&gt; = &lt;span style=&quot;color: rgb(181, 206, 168);&quot;&gt;7&lt;/span&gt;) : (&lt;span style=&quot;color: rgb(156, 220, 254);&quot;&gt;temp_pass&lt;/span&gt; = &lt;span style=&quot;color: rgb(156, 220, 254);&quot;&gt;temp_pass&lt;/span&gt;);&lt;/div&gt;&lt;div&gt;&amp;nbsp; &amp;nbsp; (&lt;span style=&quot;color: rgb(156, 220, 254);&quot;&gt;joy_x&lt;/span&gt; &amp;gt; &lt;span style=&quot;color: rgb(181, 206, 168);&quot;&gt;0&lt;/span&gt; &amp;amp;&amp;amp; &lt;span style=&quot;color: rgb(156, 220, 254);&quot;&gt;joy_y&lt;/span&gt; &amp;lt; &lt;span style=&quot;color: rgb(181, 206, 168);&quot;&gt;0&lt;/span&gt;)?(&lt;span style=&quot;color: rgb(156, 220, 254);&quot;&gt;temp_pass&lt;/span&gt; = &lt;span style=&quot;color: rgb(181, 206, 168);&quot;&gt;8&lt;/span&gt;) : (&lt;span style=&quot;color: rgb(156, 220, 254);&quot;&gt;temp_pass&lt;/span&gt; = &lt;span style=&quot;color: rgb(156, 220, 254);&quot;&gt;temp_pass&lt;/span&gt;);&lt;/div&gt;&lt;div&gt;&amp;nbsp; &amp;nbsp; &lt;/div&gt;&lt;div&gt;&amp;nbsp; &amp;nbsp; &lt;span style=&quot;color: rgb(197, 134, 192);&quot;&gt;if&lt;/span&gt;(&lt;span style=&quot;color: rgb(220, 220, 170);&quot;&gt;button_1_4_pressed&lt;/span&gt;())&lt;/div&gt;&lt;div&gt;&amp;nbsp; &amp;nbsp; {&lt;/div&gt;&lt;div&gt;&amp;nbsp; &amp;nbsp; &amp;nbsp; &amp;nbsp; &lt;span style=&quot;color: rgb(197, 134, 192);&quot;&gt;if&lt;/span&gt;(&lt;span style=&quot;color: rgb(156, 220, 254);&quot;&gt;a_random&lt;/span&gt;[&lt;span style=&quot;color: rgb(156, 220, 254);&quot;&gt;button_pressed_counter&lt;/span&gt;] == &lt;span style=&quot;color: rgb(156, 220, 254);&quot;&gt;temp_pass&lt;/span&gt;)&lt;/div&gt;&lt;div&gt;&amp;nbsp; &amp;nbsp; &amp;nbsp; &amp;nbsp; {&lt;/div&gt;&lt;div&gt;&amp;nbsp; &amp;nbsp; &amp;nbsp; &amp;nbsp; &amp;nbsp; &amp;nbsp; &lt;span style=&quot;color: rgb(156, 220, 254);&quot;&gt;button_pressed_counter&lt;/span&gt;++;&lt;/div&gt;&lt;div&gt;&amp;nbsp; &amp;nbsp; &amp;nbsp; &amp;nbsp; }&lt;/div&gt;&lt;div&gt;&amp;nbsp; &amp;nbsp; &amp;nbsp; &amp;nbsp; &lt;span style=&quot;color: rgb(197, 134, 192);&quot;&gt;else&lt;/span&gt;&lt;/div&gt;&lt;div&gt;&amp;nbsp; &amp;nbsp; &amp;nbsp; &amp;nbsp; {&lt;/div&gt;&lt;div&gt;&amp;nbsp; &amp;nbsp; &amp;nbsp; &amp;nbsp; &amp;nbsp; &amp;nbsp; &lt;span style=&quot;color: rgb(156, 220, 254);&quot;&gt;is_the_same&lt;/span&gt; = &lt;span style=&quot;color: rgb(181, 206, 168);&quot;&gt;0&lt;/span&gt;;&lt;/div&gt;&lt;div&gt;&amp;nbsp; &amp;nbsp; &amp;nbsp; &amp;nbsp; }&lt;/div&gt;&lt;div&gt;&amp;nbsp; &amp;nbsp; } &lt;/div&gt;&lt;div&gt;&lt;span style=&quot;color: rgb(106, 153, 85);&quot;&gt;&amp;nbsp; &amp;nbsp; /*************************************/&lt;/span&gt;&lt;/div&gt;&lt;br&gt;&lt;div&gt;&lt;span style=&quot;color: rgb(106, 153, 85);&quot;&gt;&amp;nbsp; &amp;nbsp; /*************************************/&lt;/span&gt;&lt;/div&gt;&lt;div&gt;&amp;nbsp; &amp;nbsp; &lt;span style=&quot;color: rgb(106, 153, 85);&quot;&gt;//check_successfully_repeated();&lt;/span&gt;&lt;/div&gt;&lt;br&gt;&lt;div&gt;&amp;nbsp; &amp;nbsp; &lt;span style=&quot;color: rgb(106, 153, 85);&quot;&gt;//Game over, no time left&lt;/span&gt;&lt;/div&gt;&lt;div&gt;&amp;nbsp; &amp;nbsp; &lt;span style=&quot;color: rgb(197, 134, 192);&quot;&gt;if&lt;/span&gt;(&lt;span style=&quot;color: rgb(156, 220, 254);&quot;&gt;time_left_counter&lt;/span&gt; == &lt;span style=&quot;color: rgb(181, 206, 168);&quot;&gt;0&lt;/span&gt;){&lt;/div&gt;&lt;div&gt;&amp;nbsp; &amp;nbsp; &amp;nbsp; &amp;nbsp; &lt;span style=&quot;color: rgb(156, 220, 254);&quot;&gt;execute_game_playing_state&lt;/span&gt; = &amp;amp;&lt;span style=&quot;color: rgb(220, 220, 170);&quot;&gt;execute_game_over_state&lt;/span&gt;;&lt;/div&gt;&lt;div&gt;&amp;nbsp; &amp;nbsp; }&lt;/div&gt;&lt;br&gt;&lt;div&gt;&amp;nbsp; &amp;nbsp; &lt;span style=&quot;color: rgb(106, 153, 85);&quot;&gt;//Game over, repeated wrongly&lt;/span&gt;&lt;/div&gt;&lt;div&gt;&amp;nbsp; &amp;nbsp; &lt;span style=&quot;color: rgb(197, 134, 192);&quot;&gt;if&lt;/span&gt;(&lt;span style=&quot;color: rgb(156, 220, 254);&quot;&gt;is_the_same&lt;/span&gt; == &lt;span style=&quot;color: rgb(181, 206, 168);&quot;&gt;0&lt;/span&gt;){&lt;/div&gt;&lt;div&gt;&amp;nbsp; &amp;nbsp; &amp;nbsp; &amp;nbsp; &lt;span style=&quot;color: rgb(156, 220, 254);&quot;&gt;execute_game_playing_state&lt;/span&gt; = &amp;amp;&lt;span style=&quot;color: rgb(220, 220, 170);&quot;&gt;execute_game_over_state&lt;/span&gt;;&lt;/div&gt;&lt;div&gt;&amp;nbsp; &amp;nbsp; }&lt;/div&gt;&lt;br&gt;&lt;div&gt;&amp;nbsp; &amp;nbsp; &lt;span style=&quot;color: rgb(197, 134, 192);&quot;&gt;if&lt;/span&gt;(&lt;span style=&quot;color: rgb(156, 220, 254);&quot;&gt;number_of_crosses_to_be_displayed&lt;/span&gt; &amp;nbsp;== &lt;span style=&quot;color: rgb(156, 220, 254);&quot;&gt;button_pressed_counter&lt;/span&gt;)&lt;/div&gt;&lt;div&gt;&amp;nbsp; &amp;nbsp; {&lt;/div&gt;&lt;div&gt;&amp;nbsp; &amp;nbsp; &amp;nbsp; &amp;nbsp; (&lt;span style=&quot;color: rgb(156, 220, 254);&quot;&gt;displayed_squares&lt;/span&gt;[&lt;span style=&quot;color: rgb(181, 206, 168);&quot;&gt;0&lt;/span&gt;].&lt;span style=&quot;color: rgb(156, 220, 254);&quot;&gt;execute_display_functions&lt;/span&gt; = &amp;amp;&lt;span style=&quot;color: rgb(220, 220, 170);&quot;&gt;draw_square&lt;/span&gt;);&lt;/div&gt;&lt;div&gt;&amp;nbsp; &amp;nbsp; &amp;nbsp; &amp;nbsp; (&lt;span style=&quot;color: rgb(156, 220, 254);&quot;&gt;displayed_squares&lt;/span&gt;[&lt;span style=&quot;color: rgb(181, 206, 168);&quot;&gt;1&lt;/span&gt;].&lt;span style=&quot;color: rgb(156, 220, 254);&quot;&gt;execute_display_functions&lt;/span&gt; = &amp;amp;&lt;span style=&quot;color: rgb(220, 220, 170);&quot;&gt;draw_square&lt;/span&gt;);&lt;/div&gt;&lt;div&gt;&amp;nbsp; &amp;nbsp; &amp;nbsp; &amp;nbsp; (&lt;span style=&quot;color: rgb(156, 220, 254);&quot;&gt;displayed_squares&lt;/span&gt;[&lt;span style=&quot;color: rgb(181, 206, 168);&quot;&gt;2&lt;/span&gt;].&lt;span style=&quot;color: rgb(156, 220, 254);&quot;&gt;execute_display_functions&lt;/span&gt; = &amp;amp;&lt;span style=&quot;color: rgb(220, 220, 170);&quot;&gt;draw_square&lt;/span&gt;);&lt;/div&gt;&lt;div&gt;&amp;nbsp; &amp;nbsp; &amp;nbsp; &amp;nbsp; (&lt;span style=&quot;color: rgb(156, 220, 254);&quot;&gt;displayed_squares&lt;/span&gt;[&lt;span style=&quot;color: rgb(181, 206, 168);&quot;&gt;3&lt;/span&gt;].&lt;span style=&quot;color: rgb(156, 220, 254);&quot;&gt;execute_display_functions&lt;/span&gt; = &amp;amp;&lt;span style=&quot;color: rgb(220, 220, 170);&quot;&gt;draw_square&lt;/span&gt;);&lt;/div&gt;&lt;div&gt;&amp;nbsp; &amp;nbsp; &amp;nbsp; &amp;nbsp; (&lt;span style=&quot;color: rgb(156, 220, 254);&quot;&gt;displayed_squares&lt;/span&gt;[&lt;span style=&quot;color: rgb(181, 206, 168);&quot;&gt;4&lt;/span&gt;].&lt;span style=&quot;color: rgb(156, 220, 254);&quot;&gt;execute_display_functions&lt;/span&gt; = &amp;amp;&lt;span style=&quot;color: rgb(220, 220, 170);&quot;&gt;draw_square&lt;/span&gt;);&lt;/div&gt;&lt;div&gt;&amp;nbsp; &amp;nbsp; &amp;nbsp; &amp;nbsp; (&lt;span style=&quot;color: rgb(156, 220, 254);&quot;&gt;displayed_squares&lt;/span&gt;[&lt;span style=&quot;color: rgb(181, 206, 168);&quot;&gt;5&lt;/span&gt;].&lt;span style=&quot;color: rgb(156, 220, 254);&quot;&gt;execute_display_functions&lt;/span&gt; = &amp;amp;&lt;span style=&quot;color: rgb(220, 220, 170);&quot;&gt;draw_square&lt;/span&gt;);&lt;/div&gt;&lt;div&gt;&amp;nbsp; &amp;nbsp; &amp;nbsp; &amp;nbsp; (&lt;span style=&quot;color: rgb(156, 220, 254);&quot;&gt;displayed_squares&lt;/span&gt;[&lt;span style=&quot;color: rgb(181, 206, 168);&quot;&gt;6&lt;/span&gt;].&lt;span style=&quot;color: rgb(156, 220, 254);&quot;&gt;execute_display_functions&lt;/span&gt; = &amp;amp;&lt;span style=&quot;color: rgb(220, 220, 170);&quot;&gt;draw_square&lt;/span&gt;);&lt;/div&gt;&lt;div&gt;&amp;nbsp; &amp;nbsp; &amp;nbsp; &amp;nbsp; (&lt;span style=&quot;color: rgb(156, 220, 254);&quot;&gt;displayed_squares&lt;/span&gt;[&lt;span style=&quot;color: rgb(181, 206, 168);&quot;&gt;7&lt;/span&gt;].&lt;span style=&quot;color: rgb(156, 220, 254);&quot;&gt;execute_display_functions&lt;/span&gt; = &amp;amp;&lt;span style=&quot;color: rgb(220, 220, 170);&quot;&gt;draw_square&lt;/span&gt;);&lt;/div&gt;&lt;div&gt;&amp;nbsp; &amp;nbsp; &amp;nbsp; &amp;nbsp; (&lt;span style=&quot;color: rgb(156, 220, 254);&quot;&gt;displayed_squares&lt;/span&gt;[&lt;span style=&quot;color: rgb(181, 206, 168);&quot;&gt;8&lt;/span&gt;].&lt;span style=&quot;color: rgb(156, 220, 254);&quot;&gt;execute_display_functions&lt;/span&gt; = &amp;amp;&lt;span style=&quot;color: rgb(220, 220, 170);&quot;&gt;draw_square&lt;/span&gt;);&lt;/div&gt;&lt;br&gt;&lt;div&gt;&amp;nbsp; &amp;nbsp; &amp;nbsp; &amp;nbsp; &lt;span style=&quot;color: rgb(156, 220, 254);&quot;&gt;number_of_crosses_to_be_displayed&lt;/span&gt;++;&lt;/div&gt;&lt;div&gt;&amp;nbsp; &amp;nbsp; &amp;nbsp; &amp;nbsp; &lt;span style=&quot;color: rgb(156, 220, 254);&quot;&gt;button_pressed_counter&lt;/span&gt; = &lt;span style=&quot;color: rgb(181, 206, 168);&quot;&gt;0&lt;/span&gt;;&lt;/div&gt;&lt;div&gt;&amp;nbsp; &amp;nbsp; &amp;nbsp; &amp;nbsp; &lt;span style=&quot;color: rgb(156, 220, 254);&quot;&gt;execute_game_playing_state&lt;/span&gt; = &amp;amp;&lt;span style=&quot;color: rgb(220, 220, 170);&quot;&gt;execute_display_sequence_state&lt;/span&gt;;&lt;/div&gt;&lt;div&gt;&amp;nbsp; &amp;nbsp; }&lt;/div&gt;&lt;div&gt;&lt;span style=&quot;color: rgb(106, 153, 85);&quot;&gt;&amp;nbsp; &amp;nbsp; /*************************************/&lt;/span&gt;&lt;/div&gt;&lt;br&gt;&lt;div&gt;&amp;nbsp; &amp;nbsp; &lt;span style=&quot;color: rgb(106, 153, 85);&quot;&gt;//update_level_advancement(number_of_crosses_to_be_displayed -button_pressed_counter, button_pressed_counter);&lt;/span&gt;&lt;/div&gt;&lt;div&gt;&amp;nbsp; &amp;nbsp; &lt;span style=&quot;color: rgb(86, 156, 214);&quot;&gt;int&lt;/span&gt; &lt;span style=&quot;color: rgb(156, 220, 254);&quot;&gt;n&lt;/span&gt; = &lt;span style=&quot;color: rgb(156, 220, 254);&quot;&gt;number_of_crosses_to_be_displayed&lt;/span&gt; -&lt;span style=&quot;color: rgb(156, 220, 254);&quot;&gt;button_pressed_counter&lt;/span&gt;;&lt;/div&gt;&lt;div&gt;&amp;nbsp; &amp;nbsp; &lt;span style=&quot;color: rgb(86, 156, 214);&quot;&gt;int&lt;/span&gt; &lt;span style=&quot;color: rgb(156, 220, 254);&quot;&gt;k&lt;/span&gt; = &lt;span style=&quot;color: rgb(156, 220, 254);&quot;&gt;button_pressed_counter&lt;/span&gt;;&lt;/div&gt;&lt;div&gt;&amp;nbsp; &amp;nbsp; &lt;span style=&quot;color: rgb(197, 134, 192);&quot;&gt;while&lt;/span&gt;(&lt;span style=&quot;color: rgb(156, 220, 254);&quot;&gt;n&lt;/span&gt;--){&lt;/div&gt;&lt;div&gt;&amp;nbsp; &amp;nbsp; &amp;nbsp; &amp;nbsp; &lt;span style=&quot;color: rgb(220, 220, 170);&quot;&gt;draw_round_advancement_cross&lt;/span&gt;(&lt;span style=&quot;color: rgb(156, 220, 254);&quot;&gt;n&lt;/span&gt;+&lt;span style=&quot;color: rgb(156, 220, 254);&quot;&gt;button_pressed_counter&lt;/span&gt;);&lt;/div&gt;&lt;div&gt;&amp;nbsp; &amp;nbsp; }&lt;/div&gt;&lt;div&gt;&amp;nbsp; &amp;nbsp; &lt;span style=&quot;color: rgb(197, 134, 192);&quot;&gt;while&lt;/span&gt;(&lt;span style=&quot;color: rgb(156, 220, 254);&quot;&gt;k&lt;/span&gt;--){&lt;/div&gt;&lt;div&gt;&amp;nbsp; &amp;nbsp; &amp;nbsp; &amp;nbsp; &lt;span style=&quot;color: rgb(220, 220, 170);&quot;&gt;draw_round_advancement_cross_plus&lt;/span&gt;(&lt;span style=&quot;color: rgb(156, 220, 254);&quot;&gt;k&lt;/span&gt;);&lt;/div&gt;&lt;div&gt;&amp;nbsp; &amp;nbsp; }&lt;/div&gt;&lt;br&gt;&lt;div&gt;&lt;span style=&quot;color: rgb(106, 153, 85);&quot;&gt;&amp;nbsp; &amp;nbsp; /*&lt;/span&gt;&lt;/div&gt;&lt;div&gt;&lt;span style=&quot;color: rgb(106, 153, 85);&quot;&gt;&amp;nbsp; &amp;nbsp; void update_level_advancement(unsigned int n, unsigned int k){&lt;/span&gt;&lt;/div&gt;&lt;div&gt;&lt;span style=&quot;color: rgb(106, 153, 85);&quot;&gt;&amp;nbsp; &amp;nbsp; while(n--){&lt;/span&gt;&lt;/div&gt;&lt;div&gt;&lt;span style=&quot;color: rgb(106, 153, 85);&quot;&gt;&amp;nbsp; &amp;nbsp; &amp;nbsp; &amp;nbsp; draw_round_advancement_cross(n+button_pressed_counter);&lt;/span&gt;&lt;/div&gt;&lt;div&gt;&lt;span style=&quot;color: rgb(106, 153, 85);&quot;&gt;&amp;nbsp; &amp;nbsp; }&lt;/span&gt;&lt;/div&gt;&lt;div&gt;&lt;span style=&quot;color: rgb(106, 153, 85);&quot;&gt;&amp;nbsp; &amp;nbsp; while(k--){&lt;/span&gt;&lt;/div&gt;&lt;div&gt;&lt;span style=&quot;color: rgb(106, 153, 85);&quot;&gt;&amp;nbsp; &amp;nbsp; &amp;nbsp; &amp;nbsp; draw_round_advancement_cross_plus(k);&lt;/span&gt;&lt;/div&gt;&lt;div&gt;&lt;span style=&quot;color: rgb(106, 153, 85);&quot;&gt;&amp;nbsp; &amp;nbsp; &amp;nbsp; &amp;nbsp; }&lt;/span&gt;&lt;/div&gt;&lt;div&gt;&lt;span style=&quot;color: rgb(106, 153, 85);&quot;&gt;&amp;nbsp; &amp;nbsp; }&lt;/span&gt;&lt;/div&gt;&lt;div&gt;&lt;span style=&quot;color: rgb(106, 153, 85);&quot;&gt;&amp;nbsp; &amp;nbsp; */&lt;/span&gt;&lt;/div&gt;&lt;br&gt;&lt;br&gt;&lt;div&gt;&lt;span style=&quot;color: rgb(106, 153, 85);&quot;&gt;&amp;nbsp; &amp;nbsp; /*************************************/&lt;/span&gt;&lt;/div&gt;&lt;div&gt;&amp;nbsp; &amp;nbsp; &lt;span style=&quot;color: rgb(106, 153, 85);&quot;&gt;//calculate_time_left();&lt;/span&gt;&lt;/div&gt;&lt;br&gt;&lt;div&gt;&amp;nbsp; &amp;nbsp; ++&lt;span style=&quot;color: rgb(156, 220, 254);&quot;&gt;time_left_counter3&lt;/span&gt;;&lt;/div&gt;&lt;div&gt;&amp;nbsp; &amp;nbsp; &lt;span style=&quot;color: rgb(197, 134, 192);&quot;&gt;if&lt;/span&gt;(&lt;span style=&quot;color: rgb(156, 220, 254);&quot;&gt;time_left_counter3&lt;/span&gt; == &lt;span style=&quot;color: rgb(181, 206, 168);&quot;&gt;8&lt;/span&gt;){&lt;/div&gt;&lt;div&gt;&amp;nbsp; &amp;nbsp; &amp;nbsp; &amp;nbsp; ++&lt;span style=&quot;color: rgb(156, 220, 254);&quot;&gt;lifeline&lt;/span&gt;.&lt;span style=&quot;color: rgb(156, 220, 254);&quot;&gt;first&lt;/span&gt;;&lt;/div&gt;&lt;div&gt;&amp;nbsp; &amp;nbsp; &amp;nbsp; &amp;nbsp; &lt;span style=&quot;color: rgb(156, 220, 254);&quot;&gt;time_left_counter3&lt;/span&gt; = &lt;span style=&quot;color: rgb(156, 220, 254);&quot;&gt;time_left_counter&lt;/span&gt;; &lt;/div&gt;&lt;div&gt;&amp;nbsp; &amp;nbsp; }&lt;/div&gt;&lt;br&gt;&lt;div&gt;&amp;nbsp; &amp;nbsp; &lt;span style=&quot;color: rgb(197, 134, 192);&quot;&gt;if&lt;/span&gt;(&lt;span style=&quot;color: rgb(156, 220, 254);&quot;&gt;lifeline&lt;/span&gt;.&lt;span style=&quot;color: rgb(156, 220, 254);&quot;&gt;first&lt;/span&gt; == &lt;span style=&quot;color: rgb(181, 206, 168);&quot;&gt;32&lt;/span&gt;){&lt;/div&gt;&lt;div&gt;&amp;nbsp; &amp;nbsp; &amp;nbsp; &amp;nbsp; &lt;span style=&quot;color: rgb(156, 220, 254);&quot;&gt;lifeline&lt;/span&gt;.&lt;span style=&quot;color: rgb(156, 220, 254);&quot;&gt;first&lt;/span&gt; = &lt;span style=&quot;color: rgb(181, 206, 168);&quot;&gt;0&lt;/span&gt;;&lt;/div&gt;&lt;div&gt;&amp;nbsp; &amp;nbsp; &amp;nbsp; &amp;nbsp; &lt;span style=&quot;color: rgb(156, 220, 254);&quot;&gt;time_left_counter&lt;/span&gt; -= &lt;span style=&quot;color: rgb(181, 206, 168);&quot;&gt;1&lt;/span&gt;;&lt;/div&gt;&lt;div&gt;&amp;nbsp; &amp;nbsp; }&lt;/div&gt;&lt;br&gt;&lt;div&gt;&lt;span style=&quot;color: rgb(106, 153, 85);&quot;&gt;&amp;nbsp; &amp;nbsp; &amp;nbsp; &amp;nbsp; /*****************************/&lt;/span&gt;&lt;/div&gt;&lt;div&gt;&amp;nbsp; &amp;nbsp; &amp;nbsp; &amp;nbsp; &lt;span style=&quot;color: rgb(106, 153, 85);&quot;&gt;//draw_lifeline();&lt;/span&gt;&lt;/div&gt;&lt;div&gt;&amp;nbsp; &amp;nbsp; &amp;nbsp; &amp;nbsp; &amp;nbsp; &amp;nbsp; &lt;span style=&quot;color: rgb(220, 220, 170);&quot;&gt;Reset0Ref&lt;/span&gt;();&lt;span style=&quot;color: rgb(106, 153, 85);&quot;&gt; &amp;nbsp; &amp;nbsp; &amp;nbsp; &amp;nbsp; &amp;nbsp; &amp;nbsp; &amp;nbsp; &amp;nbsp; &amp;nbsp; &amp;nbsp;// reset beam to center of screen&lt;/span&gt;&lt;/div&gt;&lt;div&gt;&amp;nbsp; &amp;nbsp; &amp;nbsp; &amp;nbsp; &amp;nbsp; &amp;nbsp; dp_VIA_t1_cnt_lo = &lt;span style=&quot;color: rgb(181, 206, 168);&quot;&gt;0x30&lt;/span&gt;; &amp;nbsp; &amp;nbsp;&lt;/div&gt;&lt;div&gt;&amp;nbsp; &amp;nbsp; &amp;nbsp; &amp;nbsp; &amp;nbsp; &amp;nbsp; &lt;span style=&quot;color: rgb(220, 220, 170);&quot;&gt;Moveto_d&lt;/span&gt;(&lt;span style=&quot;color: rgb(181, 206, 168);&quot;&gt;120&lt;/span&gt;, -&lt;span style=&quot;color: rgb(181, 206, 168);&quot;&gt;120&lt;/span&gt;);&lt;/div&gt;&lt;div&gt;&amp;nbsp; &amp;nbsp; &amp;nbsp; &amp;nbsp; &amp;nbsp; &amp;nbsp; &lt;span style=&quot;color: rgb(220, 220, 170);&quot;&gt;Moveto_d&lt;/span&gt;(&lt;span style=&quot;color: rgb(181, 206, 168);&quot;&gt;120&lt;/span&gt;, -&lt;span style=&quot;color: rgb(181, 206, 168);&quot;&gt;120&lt;/span&gt;);&lt;/div&gt;&lt;div&gt;&amp;nbsp; &amp;nbsp; &amp;nbsp; &amp;nbsp; &amp;nbsp; &amp;nbsp; &lt;span style=&quot;color: rgb(220, 220, 170);&quot;&gt;Moveto_d&lt;/span&gt;(&lt;span style=&quot;color: rgb(181, 206, 168);&quot;&gt;0&lt;/span&gt;, -&lt;span style=&quot;color: rgb(181, 206, 168);&quot;&gt;50&lt;/span&gt;);&lt;/div&gt;&lt;div&gt;&amp;nbsp; &amp;nbsp; &amp;nbsp; &amp;nbsp; &amp;nbsp; &amp;nbsp; &lt;span style=&quot;color: rgb(220, 220, 170);&quot;&gt;Draw_VLc&lt;/span&gt;(&amp;amp;&lt;span style=&quot;color: rgb(156, 220, 254);&quot;&gt;lifeline&lt;/span&gt;);&lt;/div&gt;&lt;div&gt;&amp;nbsp; &amp;nbsp; &amp;nbsp; &amp;nbsp; &amp;nbsp; &amp;nbsp; &lt;span style=&quot;color: rgb(220, 220, 170);&quot;&gt;Reset0Ref&lt;/span&gt;();&lt;span style=&quot;color: rgb(106, 153, 85);&quot;&gt; &amp;nbsp; &amp;nbsp; &amp;nbsp; &amp;nbsp; &amp;nbsp; &amp;nbsp; &amp;nbsp; &amp;nbsp; &amp;nbsp; &amp;nbsp;// reset beam to center of screen&lt;/span&gt;&lt;/div&gt;&lt;div&gt;&lt;span style=&quot;color: rgb(106, 153, 85);&quot;&gt;&amp;nbsp; &amp;nbsp; &amp;nbsp; &amp;nbsp; /***************************/&lt;/span&gt;&lt;/div&gt;&lt;br&gt;&lt;div&gt;&amp;nbsp; &amp;nbsp; &lt;span style=&quot;color: rgb(106, 153, 85);&quot;&gt;//Display hearbeat&lt;/span&gt;&lt;/div&gt;&lt;div&gt;&amp;nbsp; &amp;nbsp; &lt;span style=&quot;color: rgb(220, 220, 170);&quot;&gt;print_string&lt;/span&gt;(&lt;span style=&quot;color: rgb(181, 206, 168);&quot;&gt;100&lt;/span&gt;, &lt;span style=&quot;color: rgb(181, 206, 168);&quot;&gt;70&lt;/span&gt;, &lt;span style=&quot;color: rgb(206, 145, 120);&quot;&gt;&quot;BPM&lt;/span&gt;&lt;span style=&quot;color: rgb(215, 186, 125);&quot;&gt;\x80&lt;/span&gt;&lt;span style=&quot;color: rgb(206, 145, 120);&quot;&gt;&quot;&lt;/span&gt;);&lt;/div&gt;&lt;div&gt;&amp;nbsp; &amp;nbsp; &lt;span style=&quot;color: rgb(220, 220, 170);&quot;&gt;print_unsigned_int2&lt;/span&gt;(&lt;span style=&quot;color: rgb(181, 206, 168);&quot;&gt;100&lt;/span&gt;, &lt;span style=&quot;color: rgb(181, 206, 168);&quot;&gt;50&lt;/span&gt;, &lt;span style=&quot;color: rgb(156, 220, 254);&quot;&gt;time_left_counter&lt;/span&gt;*&lt;span style=&quot;color: rgb(181, 206, 168);&quot;&gt;12&lt;/span&gt;);&lt;/div&gt;&lt;div&gt;&lt;span style=&quot;color: rgb(106, 153, 85);&quot;&gt;&amp;nbsp; &amp;nbsp; /*************************************/&lt;/span&gt;&lt;/div&gt;&lt;div&gt;}&lt;/div&gt;&lt;/div&gt;" style="text;html=1;whiteSpace=wrap;overflow=hidden;rounded=0;" vertex="1" parent="1">
          <mxGeometry x="4030" y="-890" width="1350" height="3390" as="geometry" />
        </mxCell>
        <mxCell id="DJN6uil_gl4BofmzF9C0-16" value="Beschreibungen" parent="0" />
      </root>
    </mxGraphModel>
  </diagram>
</mxfile>
